<svg xmlns="http://www.w3.org/2000/svg" viewBox="0 0 74 259"><defs><style>.cls-1{fill:#ebddca;}.cls-2{fill:#46372c;}</style></defs><g id="レイヤー_2" data-name="レイヤー 2"><g id="レイヤー_1-2" data-name="レイヤー 1"><path class="cls-1" d="M16.13,0H74a0,0,0,0,1,0,0V259a0,0,0,0,1,0,0H0a0,0,0,0,1,0,0V16.13A16.13,16.13,0,0,1,16.13,0Z"/><path class="cls-2" d="M40.79,41.05a13,13,0,0,1-6.08-2.34,22.62,22.62,0,0,1-9.06-12A10.76,10.76,0,0,1,25.13,22a8.49,8.49,0,0,1,.52-2,4.14,4.14,0,0,1,2.88-2.63c.49-.13,1-.26,1.48-.35a.81.81,0,0,1,1,.65l1.74,5.71a1.12,1.12,0,0,1-.36,1.28c-.53.47-1.07.93-1.6,1.41a1.07,1.07,0,0,0-.31,1.49,18.23,18.23,0,0,0,6.05,7.22,1,1,0,0,0,1.49-.09l1.54-1.35a1.12,1.12,0,0,1,1.4-.19c1.7.87,3.42,1.72,5.13,2.58a.86.86,0,0,1,.5,1.26c-.14.41-.29.81-.46,1.21a4.59,4.59,0,0,1-4.23,2.86c-.22,0-.45,0-.67,0S41,41.06,40.79,41.05Z"/><path class="cls-2" d="M38.05,57l6.53-.36a1.82,1.82,0,0,1,.63.08.8.8,0,0,1,.61.83A3.66,3.66,0,0,1,45,59.3c-.58.81-1,1.22-1.4,1.22a.63.63,0,0,1-.39-.13.54.54,0,0,1-.25-.48,1.15,1.15,0,0,1,.13-.48,2.91,2.91,0,0,0,.35-.94c0-.14-.11-.21-.33-.2l-5.06.28v3.18a.81.81,0,0,1-.22.58,1.18,1.18,0,0,1-.9.34,1.09,1.09,0,0,1-1-.47.84.84,0,0,1-.12-.45V58.69L30.68,59a6.27,6.27,0,0,1-.26,1.48c-.2.63-.56.94-1.1.94a1.2,1.2,0,0,1-.52-.12.91.91,0,0,1-.57-.91,2.37,2.37,0,0,1,.23-.84A11.18,11.18,0,0,0,29,57.63a.79.79,0,0,1,.85-.68.72.72,0,0,1,.75.45l5.2-.29v-.89l-3.72.23H32a.75.75,0,0,1-.61-.29.74.74,0,0,1-.17-.5c0-.53.25-.81.74-.83l9.91-.59h.07a.85.85,0,0,1,.51.15.83.83,0,0,1-.08,1.37.77.77,0,0,1-.34.08l-4,.25Zm-2.14,12.3-2.37.11v.06c.05.61-.34.91-1.16.91s-1.1-.3-1.16-.91L30.72,64a1.14,1.14,0,0,1,0-.15.78.78,0,0,1,.47-.81,1.62,1.62,0,0,1,.74-.15,1.13,1.13,0,0,1,1,.44l8.83-.53h.12a1.49,1.49,0,0,1,1.09.36,1.26,1.26,0,0,1,.4,1c0,.11,0,.21,0,.28l-.55,4c-.08.63-.5,1-1.26,1a1.15,1.15,0,0,1-.89-.3l-2.59.12v.64a.46.46,0,0,0,.36.51,9.12,9.12,0,0,0,1.55.08,25.82,25.82,0,0,0,3.24-.12A.85.85,0,0,0,44,69.6a10.71,10.71,0,0,0,.13-1.23c0-.47.25-.7.67-.7a.84.84,0,0,1,.78.65,4.32,4.32,0,0,1,.22.83,8.28,8.28,0,0,1,.15,1.43,1.45,1.45,0,0,1-1.24,1.53,23.7,23.7,0,0,1-4.47.26,12,12,0,0,1-3.32-.27,1.45,1.45,0,0,1-1-1.51Zm-4-8.28a12.93,12.93,0,0,1,2.3.33c.46.1.69.31.69.64a.75.75,0,0,1,0,.26.65.65,0,0,1-.67.45,1.46,1.46,0,0,1-.5-.13c-.64-.24-1.27-.45-1.88-.62q-.42-.13-.42-.48C31.35,61.16,31.52,61,31.88,61ZM32,59.25a12.36,12.36,0,0,1,2.3.32c.47.1.71.32.71.66a.61.61,0,0,1-.7.68,1.44,1.44,0,0,1-.52-.13c-.49-.17-1.12-.37-1.89-.58-.28-.08-.42-.23-.42-.46S31.67,59.25,32,59.25Zm3.89,6.29v-.92l-2.75.18.07.89Zm0,1.29L33.34,67l.08.92,2.49-.11Zm2.17-1.42,2.76-.14.07-.68c0-.2-.09-.29-.29-.28l-2.54.17Zm0,2.27,2.53-.12.1-1-2.63.14Zm1.19-7a9.82,9.82,0,0,1,2.25.33c.46.11.69.33.69.65a.74.74,0,0,1-.05.29.64.64,0,0,1-.63.4A1.81,1.81,0,0,1,41,62.2a17.93,17.93,0,0,0-1.88-.59c-.28-.07-.42-.22-.42-.46S38.88,60.67,39.27,60.67Zm.11-1.76a13.62,13.62,0,0,1,2.28.32c.47.09.71.31.71.66a.57.57,0,0,1,0,.24.63.63,0,0,1-.67.45,1.79,1.79,0,0,1-.51-.14,13.64,13.64,0,0,0-1.89-.58.47.47,0,0,1-.41-.49C38.84,59.06,39,58.91,39.38,58.91Z"/><path class="cls-2" d="M35,79.07l-6.3.54h-.1c-.6,0-.91-.33-.91-1a.8.8,0,0,1,.8-.92l6.28-.55h.12a.81.81,0,0,1,.84.59,1.22,1.22,0,0,1,.08.43A.79.79,0,0,1,35,79.07Zm.11,10a.89.89,0,0,1,.39.8.79.79,0,0,1-.8.89L31.16,91c-.1.43-.44.65-1,.65a.9.9,0,0,1-1-.88l-.42-4.27a.68.68,0,0,1,0-.12.85.85,0,0,1,.41-.77,1.16,1.16,0,0,1,.63-.16,1.29,1.29,0,0,1,.83.26l3.18-.32.35,0c1,0,1.45.44,1.45,1.31a2.53,2.53,0,0,1-.06.45Zm-1-7.2-4.2.37h-.1a.74.74,0,0,1-.76-.52,1.05,1.05,0,0,1-.07-.4.75.75,0,0,1,.74-.85l4.2-.38h.12a.75.75,0,0,1,.69.37,1,1,0,0,1,.14.52A.78.78,0,0,1,34.16,81.82Zm0,2.6L30,84.8H29.9a.85.85,0,0,1-.85-.92.75.75,0,0,1,.74-.85L34,82.68h.11a.72.72,0,0,1,.66.35.9.9,0,0,1,.15.51A.79.79,0,0,1,34.18,84.42ZM30.66,73.79a8.81,8.81,0,0,1,2.77.89c.59.25.88.61.88,1.08a1.14,1.14,0,0,1-.13.52,1,1,0,0,1-1,.58,1.58,1.58,0,0,1-.88-.37,17.54,17.54,0,0,0-1.9-1.22c-.39-.21-.58-.46-.58-.75C29.86,74,30.13,73.79,30.66,73.79Zm2.53,15.26.15-1.35,0-.2v0c0-.17-.09-.26-.28-.26l-.27,0-1.91.19.15,1.84ZM42,79.52l3.34-.29h.11c.61,0,.92.34.92,1s-.3,1-.89,1.08l-3.48.3v2.78l1.44-.11.32,0q1.53,0,1.53,1.41a4,4,0,0,1-.05.54l-.44,2.64a.91.91,0,0,1,.48.88c0,.64-.27,1-.82,1l-5.18.32c-.13.43-.5.65-1.13.65a.87.87,0,0,1-1-.83l-.59-5.52a1.13,1.13,0,0,1,0-.14.82.82,0,0,1,.41-.74,1.42,1.42,0,0,1,.72-.16,1.08,1.08,0,0,1,.9.36l1.18-.1V81.83l-3.36.28h-.14a.81.81,0,0,1-.7-.36,1.31,1.31,0,0,1-.18-.71q0-.94.84-1l3.54-.31V77.35l-.44.1a14.28,14.28,0,0,1-2.09.4c-.54,0-.82-.29-.82-.89a.74.74,0,0,1,.43-.69,4.33,4.33,0,0,1,.72-.21,33.91,33.91,0,0,0,5.2-1.89,1.72,1.72,0,0,1,.7-.16,1,1,0,0,1,.87.44,1.22,1.22,0,0,1,.23.73,1,1,0,0,1-.69.93,15.08,15.08,0,0,1-1.87.65Zm.67,9.38.28-2c0-.18,0-.29,0-.33s-.09-.24-.28-.24l-.27,0-3.54.28.25,2.49Z"/><path class="cls-2" d="M37.78,98.42q-2.14.51-5.13,1c-1.72.27-2.71.4-2.95.4-.81,0-1.21-.43-1.21-1.29a1,1,0,0,1,.75-1.07,7.39,7.39,0,0,1,1.1-.15c1.09-.1,2.57-.29,4.43-.57q3.42-.51,5.65-1a3.53,3.53,0,0,1,.56-.07,1.13,1.13,0,0,1,1.07.66,1.65,1.65,0,0,1,.2.79,1,1,0,0,1-.81,1,7.42,7.42,0,0,0-2.93,2,5.76,5.76,0,0,0-1.61,4,3.48,3.48,0,0,0,.94,2.48A4.56,4.56,0,0,0,40,107.9a1.18,1.18,0,0,1,1,1.21,1.39,1.39,0,0,1-.29.9,1.08,1.08,0,0,1-.9.41,4.7,4.7,0,0,1-2.31-.86,5.85,5.85,0,0,1-3-5.23,6.9,6.9,0,0,1,2.36-5.2,7,7,0,0,1,.76-.62Zm4.79-4.27c.36,0,1,.36,1.75,1.09s1,1.11,1,1.47a.82.82,0,0,1-.33.65.91.91,0,0,1-.6.22.9.9,0,0,1-.76-.51,10.28,10.28,0,0,0-1.39-1.78.86.86,0,0,1-.27-.58A.5.5,0,0,1,42.57,94.15Zm1.64-1.49a3.18,3.18,0,0,1,1.68.92c.68.58,1,1.06,1,1.47a.79.79,0,0,1-.32.66.85.85,0,0,1-.53.18.91.91,0,0,1-.74-.49,9.21,9.21,0,0,0-1.39-1.63.88.88,0,0,1-.31-.59.5.5,0,0,1,.16-.36A.54.54,0,0,1,44.21,92.66Z"/><path class="cls-2" d="M33.09,117.1c0-1,0-1.7,0-2A3.32,3.32,0,0,1,33.2,114a1.13,1.13,0,0,1,1.06-.52,1.11,1.11,0,0,1,1.07.55,1.19,1.19,0,0,1,.11.51v.15c0,.76,0,1.42,0,2,.45-.1.93-.23,1.46-.38a2.21,2.21,0,0,1,.58-.11.92.92,0,0,1,.83.52,1.39,1.39,0,0,1,.19.7,1.13,1.13,0,0,1-.91,1.11,20.24,20.24,0,0,1-2.15.55c0,.28,0,.89,0,1.83,0,.47,0,.82,0,1a16.46,16.46,0,0,1,4.24-.59,6,6,0,0,1,3.45.9,3.62,3.62,0,0,1,1.54,3.17,3.88,3.88,0,0,1-1.5,3.26,5.07,5.07,0,0,1-3.19,1,4.18,4.18,0,0,1-1.26-.14,1,1,0,0,1-.74-1,.73.73,0,0,1,.47-.76,3.62,3.62,0,0,1,1-.09,3.09,3.09,0,0,0,2-.61,2,2,0,0,0,.7-1.62q0-2.13-2.76-2.13a13.48,13.48,0,0,0-4,.69v.32l0,3.9a2,2,0,0,1-.38,1.24,1.72,1.72,0,0,1-1.48.67,5.24,5.24,0,0,1-2.37-.65q-2.07-1-2.07-2.46,0-2.21,3.91-4.16v-.14c0-.9,0-1.85,0-2.86v-.3a20.6,20.6,0,0,1-2.54.31c-.76,0-1.15-.41-1.15-1.24,0-.64.39-1,1.16-1.08S32.21,117.26,33.09,117.1Zm.11,7.83c-1.11.67-1.66,1.3-1.66,1.88a.92.92,0,0,0,.38.67,1.46,1.46,0,0,0,.95.42q.24,0,.3-.15a2.83,2.83,0,0,0,0-.7c0-.31,0-.94,0-1.87Zm7.88-10.23a4.67,4.67,0,0,1,2.22,1,8.37,8.37,0,0,1,1.26,1,1.26,1.26,0,0,1,.42.94,1.26,1.26,0,0,1-1.23,1.2,1.38,1.38,0,0,1-1-.57,14.28,14.28,0,0,0-2.1-1.91,1,1,0,0,1-.43-.78.75.75,0,0,1,.15-.46A.86.86,0,0,1,41.08,114.7Z"/><path class="cls-2" d="M33.8,139.78l-2.66.25v9.15a.8.8,0,0,1-.27.62,1.24,1.24,0,0,1-.89.31,1.27,1.27,0,0,1-1-.35.83.83,0,0,1-.23-.58V133.89a.86.86,0,0,1,.52-.81,1.56,1.56,0,0,1,.68-.14,1.13,1.13,0,0,1,1,.48l3.33-.33h.32c1,0,1.42.51,1.42,1.52v.09l-.16,4.79c0,.58-.4.88-1.09.88A1,1,0,0,1,33.8,139.78Zm.05-4v-.51c0-.33-.11-.5-.35-.5h-.09l-2.28.22v1Zm0,1.4-2.68.25v1.08l2.65-.23Zm6.5,8a.86.86,0,0,1,.38.78.82.82,0,0,1-.89.91l-4.43.26c-.1.43-.45.65-1.07.65s-1.08-.3-1.13-.91l-.38-4.74a.54.54,0,0,1,0-.11.8.8,0,0,1,.69-.79,1.79,1.79,0,0,1,.55-.08,1,1,0,0,1,.91.47l3.84-.33H39c1.09,0,1.63.46,1.63,1.38a2,2,0,0,1,0,.39Zm-2.16,0,.16-1.56a.84.84,0,0,1,0-.12c0-.23-.1-.33-.33-.31h-.06l-2.79.22.14,2Zm4.65-5.77-3.07.18a1,1,0,0,1-1.07.6,1.07,1.07,0,0,1-1-.43.83.83,0,0,1-.11-.43v-5.82a.76.76,0,0,1,.47-.73,1.4,1.4,0,0,1,.64-.15,1.17,1.17,0,0,1,1,.39l3.65-.33h.37a1.43,1.43,0,0,1,1.25.48,2,2,0,0,1,.26,1.15v14.26c0,1.15-.48,1.73-1.44,1.73a7.93,7.93,0,0,1-2.81-.69,3.26,3.26,0,0,1-.63-.28.81.81,0,0,1-.48-.71c0-.48.22-.71.67-.71A1.9,1.9,0,0,1,41,148a5.33,5.33,0,0,0,1.36.22c.33,0,.5-.2.5-.61Zm0-4v-.57c0-.31-.14-.46-.41-.46h-.11l-2.5.22v1Zm0,1.4-3,.2v1.06l3-.18Z"/><path class="cls-2" d="M30.48,155.26a1.12,1.12,0,0,1,1.11.63,2,2,0,0,1,.13.81,17.39,17.39,0,0,0,.9,6.14,9.48,9.48,0,0,0,.82,1.62c.07.11.14.17.22.17s.18-.11.29-.35c.37-.75.65-1.27.82-1.55a.9.9,0,0,1,.79-.46,1,1,0,0,1,.47.12.82.82,0,0,1,.49.76,2.22,2.22,0,0,1-.19.77c-.43,1.1-.78,2-1,2.77a1.45,1.45,0,0,1-1.4,1.17c-.9,0-1.81-.81-2.72-2.42a17.73,17.73,0,0,1-1.91-8.83,1.25,1.25,0,0,1,.52-1.15A1.3,1.3,0,0,1,30.48,155.26Zm10.05.15a1.58,1.58,0,0,1,1.1.58,15.71,15.71,0,0,1,1.83,2.39,8.44,8.44,0,0,1,1.66,3.68,1.14,1.14,0,0,1-.64,1.09,1.51,1.51,0,0,1-.75.2,1.15,1.15,0,0,1-1-.46,3,3,0,0,1-.35-.83,19,19,0,0,0-2.63-5,1.3,1.3,0,0,1-.26-.73.88.88,0,0,1,.24-.6A1,1,0,0,1,40.53,155.41Z"/><path class="cls-2" d="M40.67,178.19a1.63,1.63,0,0,1,0,.36.91.91,0,0,1-.9,1l-5.8.5h-.13a.8.8,0,0,1-.68-.33,1.12,1.12,0,0,1-.19-.68,2,2,0,0,1,.06-.47,20.76,20.76,0,0,1-3.18,2.19,2.65,2.65,0,0,1-1.09.39.74.74,0,0,1-.62-.29.89.89,0,0,1-.21-.56.72.72,0,0,1,.29-.59,9.07,9.07,0,0,1,.8-.56,20.82,20.82,0,0,0,3.84-3.44,23.37,23.37,0,0,0,2.77-3.71,1.34,1.34,0,0,1,1.14-.77,1.38,1.38,0,0,1,.68.18,1,1,0,0,1,.55.95c0,.09,0,.19,0,.3a24.45,24.45,0,0,0,2.92,2.8,27.41,27.41,0,0,0,4.75,3.31q.81.44.81.75c0,.15-.14.27-.43.36a7.82,7.82,0,0,1-2.19.5,1.5,1.5,0,0,1-.78-.23A19,19,0,0,1,40.67,178.19Zm1.56,7.94a1,1,0,0,1,.53,1.05.89.89,0,0,1-.44.85.83.83,0,0,1-.42.13l-7.42.36c-.12.5-.54.75-1.25.75a1,1,0,0,1-1.17-1l-.72-5.8v-.11a.91.91,0,0,1,.7-.86,1.61,1.61,0,0,1,.58-.1,1.22,1.22,0,0,1,1.08.44l7-.59h.38c1.15,0,1.73.49,1.73,1.48a3.18,3.18,0,0,1-.07.67Zm-2.29-8.65c-1.13-1.12-2.08-2.15-2.86-3.08A24.8,24.8,0,0,1,33.8,178l5.9-.54h.24Zm-.1,8.7.31-2.28a.37.37,0,0,0,0-.11.3.3,0,0,0-.34-.34h-.09l-5.69.44.27,2.6Z"/><path class="cls-2" d="M32.36,195.25c.06-1.4.12-2.37.2-2.91a1,1,0,0,1,1.12-1,1.05,1.05,0,0,1,1.18,1.21s0,.13,0,.24q-.06.9-.09,1.77a1.1,1.1,0,0,1,.54.21,1,1,0,0,1,.44.88,1.28,1.28,0,0,1-.28.76c-.13.16-.31.44-.55.82l-.29.44v.23l0,.36,0,.36v.14a10.81,10.81,0,0,1,6.24-2.52,5.29,5.29,0,0,1,3.38,1.05,4.24,4.24,0,0,1,1.56,3.54,5.53,5.53,0,0,1-1.45,3.85,7.08,7.08,0,0,1-3.49,2,3.07,3.07,0,0,1-.75.13c-.62,0-.92-.3-.92-.89,0-.36.28-.64.83-.85a6.38,6.38,0,0,0,1.8-1,3.9,3.9,0,0,0,1.52-3.1,2.51,2.51,0,0,0-.59-1.7,2.62,2.62,0,0,0-2.11-.88q-2.4,0-6.1,2.8v.41c-.07,3.15-.1,4.86-.1,5.13s0,.28,0,.3c0,.95-.38,1.43-1.15,1.43a1.09,1.09,0,0,1-1-.44,2.11,2.11,0,0,1-.2-1.08c0-1.81,0-3.05,0-3.73-.59.52-1.06,1-1.43,1.34a1.63,1.63,0,0,1-1,.59,1.07,1.07,0,0,1-.79-.39,1.23,1.23,0,0,1-.37-.85,1.18,1.18,0,0,1,.46-.9A8.07,8.07,0,0,0,30,201.75c.48-.63,1.2-1.73,2.18-3.29,0-.36,0-.7,0-1a8.7,8.7,0,0,1-2.51.74.91.91,0,0,1-.91-.63,1.44,1.44,0,0,1-.11-.57c0-.53.37-.88,1.1-1.05S31.35,195.55,32.36,195.25Z"/><path class="cls-2" d="M39.61,215.44q0-.93,0-1.59v-1.92c0-.69.4-1,1.21-1a1.12,1.12,0,0,1,1,.48,2,2,0,0,1,.14.9c0,.57,0,1.49-.07,2.78l.2,0,1.43-.22c.78-.11,1.21-.17,1.29-.17a.94.94,0,0,1,.91.55,1.41,1.41,0,0,1,.15.65c0,.61-.36,1-1.07,1.06l-2,.31-1,.16a20.53,20.53,0,0,1-.44,3.59,2.32,2.32,0,0,1-.69,1.17,1.54,1.54,0,0,1-1,.45,1.22,1.22,0,0,1-.91-.49,8.71,8.71,0,0,0-1.32-1.29.75.75,0,0,1-.35-.61.68.68,0,0,1,.11-.37.63.63,0,0,1,.59-.32,1.06,1.06,0,0,1,.45.11c.12,0,.45.22,1,.51a18.93,18.93,0,0,0,.27-2.39l-.43.08-1.3.22-1.33.21-1.33.22-.37,0c.06,1.49.09,2.72.1,3.68a2.32,2.32,0,0,0,.41,1.5,2.8,2.8,0,0,0,2.1.58c1.86,0,3.28-.05,4.26-.14l.28,0c.72,0,1.08.39,1.08,1.16a1,1,0,0,1-.86,1.11,36,36,0,0,1-4.42.13,9.84,9.84,0,0,1-2.91-.31,3,3,0,0,1-2.1-2.09,6.09,6.09,0,0,1-.2-1.72c0-.89,0-2-.12-3.48l-2.81.49a2.41,2.41,0,0,1-.41,0,1,1,0,0,1-1-.55,1.2,1.2,0,0,1-.15-.59c0-.65.4-1,1.21-1.16l1.36-.24,1.65-.26v-.24c-.08-1.45-.14-2.32-.16-2.62a1.79,1.79,0,0,1,0-.21,1,1,0,0,1,.59-.9,1.69,1.69,0,0,1,.68-.14c.69,0,1.08.3,1.15.92,0,.41.1,1.34.17,2.79l.37-.07,1.41-.22,1.41-.24,1.39-.21Z"/></g></g></svg>