<svg xmlns="http://www.w3.org/2000/svg" viewBox="0 0 300 81"><defs><style>.cls-1{fill:#fff;}.cls-2{fill:#46372c;}.cls-3{fill:#06c755;}</style></defs><g id="レイヤー_2" data-name="レイヤー 2"><g id="レイヤー_1-2" data-name="レイヤー 1"><rect class="cls-1" width="300" height="81"/><path class="cls-2" d="M211.44,58.48l4.22-.22h.26c.76.07,1.14.53,1.14,1.39s-.37,1.36-1.13,1.4L192.76,62.1h0a1,1,0,0,1-.78-.26,1.32,1.32,0,0,1-.47-1.09c0-.92.41-1.4,1.22-1.44l4.09-.19V49.44a1.29,1.29,0,0,1,.68-1.16A2,2,0,0,1,198.5,48a1.88,1.88,0,0,1,1.29.48l9.33-.65h.2A1.88,1.88,0,0,1,211.44,50Zm-5.85-15.6v3.43a1.24,1.24,0,0,1-.34.87,1.83,1.83,0,0,1-1.4.56,1.7,1.7,0,0,1-1.53-.74,1.31,1.31,0,0,1-.18-.69V43.49a27.3,27.3,0,0,1-7,5.19,6.79,6.79,0,0,1-2.27.9.9.9,0,0,1-.84-.5,1.17,1.17,0,0,1-.19-.61,1,1,0,0,1,.42-.8,6.35,6.35,0,0,1,1.08-.63,24.89,24.89,0,0,0,6.17-4.86l-5.17.34-.11,0a1.23,1.23,0,0,1-1.16-.63,1.61,1.61,0,0,1-.2-.8c0-.93.43-1.42,1.28-1.48l8-.55V36.76a1.29,1.29,0,0,1,.69-1.2,2,2,0,0,1,1-.29,1.87,1.87,0,0,1,1.2.42,1.28,1.28,0,0,1,.51,1.07v2.09l7.66-.53.12,0a1.26,1.26,0,0,1,1.2.67,1.85,1.85,0,0,1,.19.83,1.23,1.23,0,0,1-1.25,1.41l-6.19.42a36.78,36.78,0,0,0,8.51,4.51c.8.29,1.21.58,1.21.87s-.23.43-.68.62a9.46,9.46,0,0,1-3,.77,3.54,3.54,0,0,1-1.7-.67A44.3,44.3,0,0,1,205.59,42.88Zm2.4,8.63v-.64a.59.59,0,0,0-.7-.67l-7.06.5V52Zm0,2.12-7.76.5v1.36L208,55Zm0,3.52-7.76.46V59l7.76-.36Z"/><path class="cls-2" d="M235.66,47.9v3l5.48-.44h.11a1.19,1.19,0,0,1,.95.41,1.53,1.53,0,0,1,.36,1.06c0,.93-.43,1.43-1.28,1.49l-5.62.38v3.73A61.17,61.17,0,0,0,246.41,59c.78,0,1.17.21,1.17.5s-.28.53-.84.94a7.34,7.34,0,0,1-3.9,1.69,23,23,0,0,1-4.79-.82,37.69,37.69,0,0,1-7.44-2.66,27.32,27.32,0,0,1-3.55-2A16,16,0,0,1,224,60.67a2.56,2.56,0,0,1-1.55.8,1.24,1.24,0,0,1-.85-.37,1.17,1.17,0,0,1-.35-.82,2.84,2.84,0,0,1,.81-1.49,18.82,18.82,0,0,0,2.5-4.29,23.45,23.45,0,0,0,1.18-3.16A1.59,1.59,0,0,1,227.31,50a2.47,2.47,0,0,1,.83.15,1.45,1.45,0,0,1,1.06,1.43,10.47,10.47,0,0,1-1,3,22.61,22.61,0,0,0,4,1.9V48.18l-5,.4-.21,0c-.81,0-1.22-.52-1.22-1.55A1.23,1.23,0,0,1,227,45.64l13-1.06h.19c.85,0,1.27.51,1.27,1.54a1.25,1.25,0,0,1-1.26,1.43Zm-.17-8.47,8.5-.63h.37q1.89,0,1.89,1.5a6.28,6.28,0,0,1-1.41,3.2,13,13,0,0,1-1.25,1.58,1.36,1.36,0,0,1-1,.5,1.11,1.11,0,0,1-.61-.2.85.85,0,0,1-.38-.75,2.68,2.68,0,0,1,.18-.8,6.2,6.2,0,0,0,.44-1.61q0-.36-.42-.36h-.17l-15.92,1.21c-.17,2.8-.93,4.19-2.27,4.19a2.24,2.24,0,0,1-.93-.21,1.54,1.54,0,0,1-.94-1.46,3.07,3.07,0,0,1,.42-1.27,10.68,10.68,0,0,0,1.11-3.78,1.26,1.26,0,0,1,1.35-1.31,1.12,1.12,0,0,1,1.19.94l6.22-.46V36.93a1.37,1.37,0,0,1,.75-1.27,2.15,2.15,0,0,1,1.07-.27,1.83,1.83,0,0,1,1.38.53,1.35,1.35,0,0,1,.42,1Z"/><path class="cls-2" d="M106.71,40.32V57.85c0,.46.3.69.88.69h8.21a2.2,2.2,0,0,1,1.33.39,1.76,1.76,0,0,1-.31,3,2.2,2.2,0,0,1-1,.21H105.71q-4.06,0-4.07-3.07V40.32a1.37,1.37,0,0,1,1-1.25,4.09,4.09,0,0,1,1.56-.29,3.58,3.58,0,0,1,1.8.43A1.27,1.27,0,0,1,106.71,40.32Z"/><path class="cls-2" d="M128.92,42.23h-2.27a2,2,0,0,1-1.17-.34,1.48,1.48,0,0,1,.25-2.57,2.15,2.15,0,0,1,.92-.19h9.7a2,2,0,0,1,1.12.3,1.4,1.4,0,0,1,.68,1.24,1.46,1.46,0,0,1-.88,1.36,1.84,1.84,0,0,1-.92.2H134V59.08h2.31a1.92,1.92,0,0,1,1.14.34,1.48,1.48,0,0,1-.22,2.58,2.19,2.19,0,0,1-.92.18h-9.7a2.08,2.08,0,0,1-1.13-.29,1.5,1.5,0,0,1,.19-2.61,2.13,2.13,0,0,1,.94-.2h2.27Z"/><path class="cls-2" d="M149.71,46.09l.47,15.06a1.12,1.12,0,0,1-.61,1,3.46,3.46,0,0,1-1.86.45,3.14,3.14,0,0,1-2-.56,1,1,0,0,1-.45-.86v-20a2,2,0,0,1,.84-1.68,4,4,0,0,1,2.44-.68,3.08,3.08,0,0,1,3.17,1.82l5.5,13.31-.39-13.71a1.15,1.15,0,0,1,.62-1,3.51,3.51,0,0,1,1.86-.45,3.13,3.13,0,0,1,2,.56,1.07,1.07,0,0,1,.46.86V60.32q0,2.25-2.67,2.25a2.94,2.94,0,0,1-2.9-1.93Z"/><path class="cls-2" d="M172.35,52v6.09q0,.57.75.57h9a2.16,2.16,0,0,1,1.27.36,1.72,1.72,0,0,1-.31,3,2.49,2.49,0,0,1-1,.18H171.55c-2.72,0-4.07-1-4.07-3V42.19c0-2,1.35-3.06,4.07-3.06h10a2,2,0,0,1,1.35.45,1.65,1.65,0,0,1-.37,2.79,2.25,2.25,0,0,1-1,.2H173.1q-.75,0-.75.6v5.54h7.83a2.25,2.25,0,0,1,1.21.32,1.59,1.59,0,0,1-.16,2.75,2.46,2.46,0,0,1-1,.21Z"/><rect class="cls-3" x="33.31" y="17" width="48.31" height="48.31" rx="8.97"/><path class="cls-1" d="M73.58,38.88c0-7.21-7.23-13.07-16.11-13.07S41.36,31.67,41.36,38.88c0,6.46,5.73,11.87,13.47,12.9.52.11,1.24.34,1.42.79a3.28,3.28,0,0,1,0,1.46l-.23,1.38c-.07.4-.32,1.59,1.4.87s9.27-5.47,12.65-9.36h0A11.6,11.6,0,0,0,73.58,38.88Z"/><path class="cls-3" d="M68.22,43H63.69a.3.3,0,0,1-.31-.3h0v-7h0a.31.31,0,0,1,.31-.31h4.53a.3.3,0,0,1,.3.31v1.14a.3.3,0,0,1-.3.31H65.14v1.18h3.08a.3.3,0,0,1,.3.31v1.14a.3.3,0,0,1-.3.31H65.14v1.19h3.08a.29.29,0,0,1,.3.3v1.15A.29.29,0,0,1,68.22,43Z"/><path class="cls-3" d="M51.48,43a.29.29,0,0,0,.3-.3V41.59a.29.29,0,0,0-.3-.3H48.4V35.71a.31.31,0,0,0-.31-.31H47a.31.31,0,0,0-.31.31v7h0A.3.3,0,0,0,47,43h4.53Z"/><rect class="cls-3" x="52.75" y="35.4" width="1.76" height="7.65" rx="0.31"/><path class="cls-3" d="M62,35.4H60.84a.31.31,0,0,0-.31.31v4.17l-3.22-4.34,0,0h0v0h0l0,0H55.91a.3.3,0,0,0-.3.31v7a.29.29,0,0,0,.3.3h1.15a.29.29,0,0,0,.3-.3V38.56l3.22,4.35.08.08H62a.3.3,0,0,0,.31-.3v-7A.31.31,0,0,0,62,35.4Z"/><path class="cls-2" d="M146.11,17.15c0-1,0-1.7,0-1.95a3.49,3.49,0,0,1,.12-1.18,1.12,1.12,0,0,1,1-.51,1.08,1.08,0,0,1,1.06.54,1.19,1.19,0,0,1,.11.51v.15c0,.76,0,1.42,0,2,.44-.1.93-.23,1.45-.38a2.22,2.22,0,0,1,.57-.11.9.9,0,0,1,.82.52,1.41,1.41,0,0,1,.2.7,1.15,1.15,0,0,1-.91,1.12c-.51.16-1.22.35-2.13.54,0,.28,0,.89,0,1.83,0,.47,0,.82,0,1a16.16,16.16,0,0,1,4.2-.59,5.81,5.81,0,0,1,3.42.91,3.61,3.61,0,0,1,1.53,3.16,3.9,3.9,0,0,1-1.49,3.26,5,5,0,0,1-3.17.95,4.12,4.12,0,0,1-1.24-.14,1,1,0,0,1-.74-1,.75.75,0,0,1,.48-.76,3.45,3.45,0,0,1,1-.09,3,3,0,0,0,2-.61,2,2,0,0,0,.7-1.62c0-1.42-.91-2.13-2.74-2.13a13.24,13.24,0,0,0-3.93.69v.32l0,3.9a2,2,0,0,1-.37,1.24,1.73,1.73,0,0,1-1.47.67,5.13,5.13,0,0,1-2.35-.65c-1.37-.69-2.05-1.51-2.05-2.46q0-2.2,3.88-4.16v-.13c0-.91,0-1.86,0-2.87v-.3a20.22,20.22,0,0,1-2.52.31c-.76,0-1.14-.41-1.14-1.24,0-.64.38-1,1.15-1.08S145.24,17.31,146.11,17.15Zm.1,7.83c-1.09.67-1.64,1.3-1.64,1.89a.92.92,0,0,0,.38.66,1.42,1.42,0,0,0,.93.42q.26,0,.3-.15a2.38,2.38,0,0,0,0-.7c0-.31,0-.93,0-1.87ZM154,14.76a4.56,4.56,0,0,1,2.19.94,7.79,7.79,0,0,1,1.25,1,1.28,1.28,0,0,1,.42.94,1.24,1.24,0,0,1-1.22,1.2,1.37,1.37,0,0,1-1-.57,14.52,14.52,0,0,0-2.08-1.91,1,1,0,0,1-.42-.78.81.81,0,0,1,.14-.46A.85.85,0,0,1,154,14.76Z"/><path class="cls-2" d="M167,14.77l8.14-.73h.12a.83.83,0,0,1,.86,1,.77.77,0,0,1-.75.88l-9.85.83a19.88,19.88,0,0,1-1.89,1.79,1.25,1.25,0,0,1-.76.34.8.8,0,0,1-.62-.29A.76.76,0,0,1,162,18a1.73,1.73,0,0,1,.58-1,17,17,0,0,0,2.53-3.66,1.22,1.22,0,0,1,1.1-.77,1.38,1.38,0,0,1,.59.14,1,1,0,0,1,.58.92,2.25,2.25,0,0,1-.37,1Zm5.65,6.79-9.61.76a1,1,0,0,1-.6-.14.82.82,0,0,1-.39-.78c0-.61.27-.93.81-1l10.84-.84h.36c1.1,0,1.64.51,1.64,1.51a6,6,0,0,1,0,.64,16.21,16.21,0,0,0-.08,1.89,7.72,7.72,0,0,0,.85,4,1.94,1.94,0,0,0,.33.4c.18.18.31.27.4.27s.18-.16.25-.47a11,11,0,0,0,.29-1.83c0-.49.29-.73.73-.73s.74.4.74,1.2a10.83,10.83,0,0,1-.37,3.38A1.51,1.51,0,0,1,177.39,31a2.89,2.89,0,0,1-2-1.11q-2-2.07-2-6.47V22.26c0-.47-.2-.7-.62-.7Zm-3.08,4.26c.4.28.9.67,1.52,1.18a1.52,1.52,0,0,1,.67,1.15,1.15,1.15,0,0,1-.34.81,1.1,1.1,0,0,1-.8.38,1.2,1.2,0,0,1-.71-.26,5.86,5.86,0,0,1-.56-.53c-.3-.29-.73-.68-1.28-1.16a16.79,16.79,0,0,1-4.26,3,1.9,1.9,0,0,1-.78.23.73.73,0,0,1-.67-.42.86.86,0,0,1-.11-.4.89.89,0,0,1,.32-.65c.06-.06.32-.23.75-.51a18.66,18.66,0,0,0,3.11-2.58q-1-.75-1.95-1.35a1,1,0,0,1-.59-.84.84.84,0,0,1,.18-.52.78.78,0,0,1,.64-.31,1.68,1.68,0,0,1,.68.18,25.45,25.45,0,0,1,2.35,1.37A15.26,15.26,0,0,0,169,22.75a1.34,1.34,0,0,1,1.14-.77,1.12,1.12,0,0,1,.7.24,1,1,0,0,1,.43.84,1.47,1.47,0,0,1-.24.77A16.12,16.12,0,0,1,169.58,25.82Zm4.09-7.2-8.08.69h-.14c-.53,0-.79-.28-.79-.84a.77.77,0,0,1,.77-.88l8.06-.67h.12a.89.89,0,0,1,.55.19.76.76,0,0,1,.28.63A.77.77,0,0,1,173.67,18.62Z"/><path class="cls-2" d="M186.84,24.08v1.14l2.61-.17h.08a.83.83,0,0,1,.64.25,1.05,1.05,0,0,1,.24.73c0,.62-.27.95-.8,1l-2.77.19V30a.87.87,0,0,1-.28.66,1,1,0,0,1-.74.27,1,1,0,0,1-.91-.47,1,1,0,0,1-.11-.46V27.31l-2.63.17h-.09a.72.72,0,0,1-.75-.51,1.24,1.24,0,0,1-.1-.52c0-.58.26-.88.77-.91l2.8-.19V24.22l-.84.05a.85.85,0,0,1-.83.44c-.55,0-.85-.26-.88-.76l-.42-5.31a.74.74,0,0,1,.27-.7,1,1,0,0,1,.62-.2,1,1,0,0,1,.76.28l1.32-.12v-1l-2.27.2h-.13a.78.78,0,0,1-.59-.25,1.09,1.09,0,0,1-.22-.72q0-.84.75-.9l2.46-.19v-1.3a.84.84,0,0,1,.22-.6,1.14,1.14,0,0,1,.82-.31,1,1,0,0,1,.9.45.85.85,0,0,1,.12.46V14.9l2-.15a.83.83,0,0,1,.6.16,1,1,0,0,1,.34.8.78.78,0,0,1-.81.87l-2.17.19v.95l1.34-.11.28,0c.88,0,1.32.42,1.32,1.27,0,.12,0,.22,0,.28l-.36,4.5a.78.78,0,0,1-.89.8.76.76,0,0,1-.78-.42ZM185,20.31v-.88l-1.22.1.06.86Zm0,1.35-1.06.07.07,1,1-.06Zm1.75-1.47,1.22-.09,0-.41v-.07c0-.29-.13-.43-.39-.4h-.06l-.8.06Zm0,1.36v1l1.08-.08.05-1Zm8.81,4.56v2l3.29-.18h.07a.77.77,0,0,1,.62.26,1.17,1.17,0,0,1,.26.79q0,1-.87,1.08l-8.65.4h-.09a.75.75,0,0,1-.71-.41,1.36,1.36,0,0,1-.17-.71.89.89,0,0,1,.43-.84,1.11,1.11,0,0,1,.44-.12l3.13-.17V26.25l-1.8.12h-.08c-.57,0-.86-.36-.86-1.08s.26-.93.78-1l2-.13V22.8a.87.87,0,0,1,.42-.78,1.23,1.23,0,0,1,.7-.21,1.16,1.16,0,0,1,.82.29.88.88,0,0,1,.31.7v1.26l2.16-.13a.86.86,0,0,1,.67.2,1,1,0,0,1,.31.8c0,.65-.29,1-.85,1ZM194.3,18a9.38,9.38,0,0,0,1.06-1.6,1.48,1.48,0,0,0,.19-.54q0-.18-.27-.18h-.16l-3.73.35h-.11c-.54,0-.81-.37-.81-1s.25-1,.77-1l5.54-.43H197c.89,0,1.34.37,1.34,1.11a3,3,0,0,1-.33,1.19,14.71,14.71,0,0,1-2.13,3.32,20.92,20.92,0,0,0,3.47,1.94c.48.21.72.43.72.67s-.16.37-.48.48a6.93,6.93,0,0,1-1.9.42c-.5,0-1.58-.68-3.24-2a16.17,16.17,0,0,1-2.81,2,2.7,2.7,0,0,1-1,.39.72.72,0,0,1-.62-.31.77.77,0,0,1-.14-.44.78.78,0,0,1,.34-.65,2.31,2.31,0,0,1,.37-.23,14.38,14.38,0,0,0,2.53-2,17.59,17.59,0,0,1-1.72-1.83,1.1,1.1,0,0,1-.29-.67.67.67,0,0,1,.22-.52.85.85,0,0,1,.58-.23,1.26,1.26,0,0,1,.83.46A15.6,15.6,0,0,0,194.3,18Z"/></g></g></svg>