<svg xmlns="http://www.w3.org/2000/svg" viewBox="0 0 300 81"><defs><style>.cls-1{fill:#ebddca;}.cls-2{fill:#46372c;}</style></defs><g id="レイヤー_2" data-name="レイヤー 2"><g id="レイヤー_1-2" data-name="レイヤー 1"><rect class="cls-1" width="300" height="81"/><path class="cls-2" d="M99.74,44.33c0-1.53,0-2.49,0-2.86a4.77,4.77,0,0,1,.19-1.71,1.59,1.59,0,0,1,1.53-.76,1.61,1.61,0,0,1,1.56.8,1.78,1.78,0,0,1,.15.74v.22c0,1.11,0,2.08,0,2.9.65-.14,1.36-.33,2.12-.56a3.24,3.24,0,0,1,.84-.15,1.33,1.33,0,0,1,1.2.75,2.09,2.09,0,0,1,.29,1,1.68,1.68,0,0,1-1.33,1.63,29.57,29.57,0,0,1-3.12.8c0,.41,0,1.3,0,2.68,0,.69,0,1.2,0,1.51a23.29,23.29,0,0,1,6.16-.87,8.49,8.49,0,0,1,5,1.33,5.28,5.28,0,0,1,2.24,4.63,5.71,5.71,0,0,1-2.18,4.78,7.31,7.31,0,0,1-4.63,1.39,6.23,6.23,0,0,1-1.83-.2,1.46,1.46,0,0,1-1.07-1.49,1.08,1.08,0,0,1,.69-1.1,4.56,4.56,0,0,1,1.49-.15,4.43,4.43,0,0,0,2.92-.88,2.9,2.9,0,0,0,1-2.37q0-3.12-4-3.12a19.65,19.65,0,0,0-5.77,1v.46l0,5.72a3,3,0,0,1-.54,1.82,2.54,2.54,0,0,1-2.15,1,7.56,7.56,0,0,1-3.44-1q-3-1.53-3-3.6,0-3.23,5.68-6.09v-.2c0-1.32,0-2.72,0-4.19l0-.44a30.86,30.86,0,0,1-3.68.45c-1.12,0-1.67-.6-1.67-1.81,0-1,.56-1.47,1.68-1.59S98.47,44.57,99.74,44.33ZM99.9,55.8c-1.61,1-2.41,1.9-2.41,2.76a1.33,1.33,0,0,0,.55,1,2.1,2.1,0,0,0,1.38.62c.23,0,.38-.07.44-.22a4.46,4.46,0,0,0,.07-1q0-.67,0-2.73Zm11.43-15a6.72,6.72,0,0,1,3.21,1.39,11.33,11.33,0,0,1,1.83,1.44A1.9,1.9,0,0,1,117,45a1.68,1.68,0,0,1-.63,1.32,1.69,1.69,0,0,1-1.16.44,2,2,0,0,1-1.47-.83,21.32,21.32,0,0,0-3-2.8,1.45,1.45,0,0,1-.62-1.14,1.16,1.16,0,0,1,.21-.68A1.26,1.26,0,0,1,111.33,40.83Z"/><path class="cls-2" d="M130.49,49l-3.85.36v13.4a1.21,1.21,0,0,1-.4.92,1.81,1.81,0,0,1-1.29.45,1.87,1.87,0,0,1-1.4-.51,1.2,1.2,0,0,1-.34-.86V40.37a1.27,1.27,0,0,1,.77-1.19,2.25,2.25,0,0,1,1-.21,1.63,1.63,0,0,1,1.5.72l4.83-.49.46,0c1.37,0,2.06.74,2.06,2.22v.14l-.24,7c-.05.86-.58,1.29-1.57,1.29A1.44,1.44,0,0,1,130.49,49Zm.07-5.89v-.74c0-.49-.14-.73-.49-.73h-.14l-3.3.31v1.52Zm0,2.06-3.88.36v1.59l3.84-.35ZM140,56.93a1.26,1.26,0,0,1,.55,1.14,1.19,1.19,0,0,1-1.29,1.33l-6.43.39c-.14.63-.65.94-1.54.94s-1.58-.44-1.64-1.33L129,52.47c0-.09,0-.14,0-.17,0-.58.34-1,1-1.16a2.66,2.66,0,0,1,.79-.12,1.39,1.39,0,0,1,1.32.69l5.56-.47.38,0c1.58,0,2.37.68,2.37,2a3.25,3.25,0,0,1-.06.57Zm-3.13,0,.23-2.29c0-.1,0-.16,0-.17,0-.33-.14-.49-.48-.46l-.09,0-4,.33.2,2.86Zm6.74-8.45-4.45.26a1.44,1.44,0,0,1-1.55.88,1.54,1.54,0,0,1-1.42-.63,1.14,1.14,0,0,1-.17-.63V39.84a1.11,1.11,0,0,1,.69-1.07,2.07,2.07,0,0,1,.92-.21,1.68,1.68,0,0,1,1.38.57l5.29-.49h.54a2.09,2.09,0,0,1,1.82.7A3,3,0,0,1,147,41V61.89c0,1.69-.7,2.53-2.1,2.53a11.48,11.48,0,0,1-4.08-1,6.22,6.22,0,0,1-.9-.41,1.19,1.19,0,0,1-.7-1c0-.69.32-1,1-1a2.94,2.94,0,0,1,.68.11,8.17,8.17,0,0,0,2,.32c.48,0,.72-.3.72-.89Zm0-5.85V41.8c0-.45-.2-.67-.59-.67h-.16l-3.63.33V43Zm0,2.06-4.38.29v1.55l4.38-.27Z"/><path class="cls-2" d="M155.4,43.1A1.61,1.61,0,0,1,157,44a2.93,2.93,0,0,1,.18,1.19,25.86,25.86,0,0,0,1.3,9,13.83,13.83,0,0,0,1.19,2.37c.11.17.22.26.33.26s.25-.17.42-.52c.54-1.09.94-1.85,1.19-2.27a1.31,1.31,0,0,1,1.15-.67,1.49,1.49,0,0,1,.68.17,1.22,1.22,0,0,1,.71,1.12,3.38,3.38,0,0,1-.29,1.13c-.62,1.61-1.12,3-1.5,4.06a2.1,2.1,0,0,1-2,1.7q-2,0-4-3.53-2.78-4.94-2.78-12.94a1.85,1.85,0,0,1,.77-1.68A1.76,1.76,0,0,1,155.4,43.1Zm14.57.23a2.23,2.23,0,0,1,1.6.84,24,24,0,0,1,2.67,3.51c1.6,2.5,2.4,4.29,2.4,5.39a1.69,1.69,0,0,1-.93,1.59,2.21,2.21,0,0,1-1.09.3,1.67,1.67,0,0,1-1.39-.68,4.53,4.53,0,0,1-.51-1.21,28,28,0,0,0-3.81-7.28,1.94,1.94,0,0,1-.38-1.07,1.34,1.34,0,0,1,.35-.89A1.45,1.45,0,0,1,170,43.33Z"/><path class="cls-2" d="M199.91,48.12a2.13,2.13,0,0,1,.08.53,1.34,1.34,0,0,1-1.31,1.53l-8.41.73h-.18a1.18,1.18,0,0,1-1-.48,1.7,1.7,0,0,1-.28-1,2.47,2.47,0,0,1,.1-.7A30.13,30.13,0,0,1,184.29,52a3.73,3.73,0,0,1-1.58.57,1.06,1.06,0,0,1-.89-.43,1.28,1.28,0,0,1-.32-.81,1.12,1.12,0,0,1,.43-.88c.09-.08.48-.35,1.16-.81a30.66,30.66,0,0,0,5.57-5,36.08,36.08,0,0,0,4-5.44A1.92,1.92,0,0,1,194.33,38a2,2,0,0,1,1,.26,1.51,1.51,0,0,1,.81,1.4,3.44,3.44,0,0,1,0,.43,35.89,35.89,0,0,0,4.23,4.1,39.62,39.62,0,0,0,6.9,4.85c.78.42,1.17.79,1.17,1.1s-.21.4-.62.53a11.47,11.47,0,0,1-3.17.73,2.08,2.08,0,0,1-1.14-.34A26.68,26.68,0,0,1,199.91,48.12Zm2.27,11.64a1.51,1.51,0,0,1,.76,1.53,1.34,1.34,0,0,1-.63,1.25,1.28,1.28,0,0,1-.61.18l-10.76.53c-.18.73-.79,1.1-1.82,1.1a1.49,1.49,0,0,1-1.7-1.4l-1-8.49V54.3a1.36,1.36,0,0,1,1-1.27,2.34,2.34,0,0,1,.85-.15,1.76,1.76,0,0,1,1.55.65L200,52.67l.56,0c1.67,0,2.5.72,2.5,2.16a4.89,4.89,0,0,1-.1,1Zm-3.33-12.67c-1.63-1.65-3-3.15-4.15-4.52a35,35,0,0,1-4.76,5.29l8.56-.78h.35Zm-.14,12.74.45-3.34a.78.78,0,0,0,0-.16.44.44,0,0,0-.5-.5h-.13l-8.25.64.4,3.81Z"/><path class="cls-2" d="M217.59,44.56c.08-2.05.18-3.47.28-4.26a1.5,1.5,0,0,1,1.63-1.46,1.55,1.55,0,0,1,1.72,1.77c0,.07,0,.19,0,.36-.06.88-.11,1.74-.13,2.59a1.72,1.72,0,0,1,.78.3,1.54,1.54,0,0,1,.64,1.3,1.88,1.88,0,0,1-.41,1.1c-.18.25-.44.65-.79,1.2-.14.2-.28.42-.43.65v.34l0,.53,0,.53v.2Q225.71,46,229.83,46a7.6,7.6,0,0,1,4.9,1.54A6.23,6.23,0,0,1,237,52.74a8,8,0,0,1-2.11,5.63,10.13,10.13,0,0,1-5,2.88,4.9,4.9,0,0,1-1.09.18,1.17,1.17,0,0,1-1.34-1.3c0-.52.4-.94,1.21-1.24a9,9,0,0,0,2.6-1.47,5.72,5.72,0,0,0,2.21-4.55,3.71,3.71,0,0,0-.85-2.49,3.8,3.8,0,0,0-3.06-1.29q-3.48,0-8.85,4.11v.6c-.11,4.61-.15,7.11-.14,7.51s0,.41,0,.44c0,1.39-.56,2.09-1.67,2.09a1.55,1.55,0,0,1-1.4-.65,3,3,0,0,1-.3-1.57q0-4,0-5.46c-.85.76-1.54,1.41-2.07,2a2.31,2.31,0,0,1-1.51.85,1.57,1.57,0,0,1-1.15-.57,1.8,1.8,0,0,1-.54-1.24,1.76,1.76,0,0,1,.68-1.32,12,12,0,0,0,1.62-1.77c.69-.92,1.75-2.53,3.15-4.82q0-.78.06-1.47a13.19,13.19,0,0,1-3.64,1.09,1.34,1.34,0,0,1-1.33-.93,2.49,2.49,0,0,1-.16-.83c0-.78.54-1.3,1.6-1.55S216.13,45,217.59,44.56Z"/><path class="cls-2" d="M257.83,45.56c0-.9,0-1.68,0-2.33l0-2.8c0-1,.59-1.52,1.76-1.52a1.63,1.63,0,0,1,1.53.7,3,3,0,0,1,.2,1.33c0,.83,0,2.19-.1,4.06l.28,0,2.08-.31c1.14-.17,1.76-.26,1.87-.26a1.35,1.35,0,0,1,1.32.82,2.06,2.06,0,0,1,.21.94c0,.89-.51,1.41-1.54,1.56-.47.06-1.44.22-2.9.45l-1.46.23a31.14,31.14,0,0,1-.64,5.25,3.44,3.44,0,0,1-1,1.72,2.22,2.22,0,0,1-1.53.65,1.7,1.7,0,0,1-1.31-.71,13.43,13.43,0,0,0-1.91-1.89,1.09,1.09,0,0,1-.51-.88,1.11,1.11,0,0,1,.15-.55.93.93,0,0,1,.87-.47,1.45,1.45,0,0,1,.65.16c.17.07.65.32,1.44.74a27.14,27.14,0,0,0,.4-3.49l-.62.12-1.89.31-1.92.32-1.93.31-.54.09c.09,2.18.13,4,.14,5.37a3.4,3.4,0,0,0,.6,2.2c.47.57,1.48.85,3,.85q4,0,6.18-.2l.41,0c1,0,1.56.57,1.56,1.7a1.52,1.52,0,0,1-1.25,1.62,50.82,50.82,0,0,1-6.4.2,14.29,14.29,0,0,1-4.22-.46,4.39,4.39,0,0,1-3.05-3.06,9.37,9.37,0,0,1-.29-2.52c0-1.29-.07-3-.17-5.09-.87.15-2.23.38-4.08.72a3.77,3.77,0,0,1-.6.05,1.47,1.47,0,0,1-1.4-.8,1.71,1.71,0,0,1-.23-.87c0-1,.59-1.52,1.76-1.7l2-.34,2.4-.39,0-.34c-.12-2.13-.2-3.41-.24-3.85,0-.12,0-.22,0-.3a1.37,1.37,0,0,1,.86-1.31,2.11,2.11,0,0,1,1-.22c1,0,1.57.45,1.67,1.35q.11.9.24,4.08l.54-.1,2.05-.32,2-.35,2-.31Z"/><path class="cls-2" d="M58.65,62.47a25.53,25.53,0,0,1-11-6.27,43.26,43.26,0,0,1-13.8-25.34A20.15,20.15,0,0,1,34.27,22a15.67,15.67,0,0,1,1.59-3.66,8,8,0,0,1,6.3-4c1-.09,2-.18,2.93-.2a1.56,1.56,0,0,1,1.78,1.52c.56,3.75,1.1,7.5,1.66,11.25a2.09,2.09,0,0,1-1.07,2.28c-1.16.72-2.33,1.42-3.49,2.15A2,2,0,0,0,43,34a34.87,34.87,0,0,0,9.45,15.4,2,2,0,0,0,2.87.29c1.12-.68,2.24-1.36,3.35-2.06a2.21,2.21,0,0,1,2.73.08c3,2.16,6.05,4.28,9.07,6.43A1.62,1.62,0,0,1,71,56.66c-.39.72-.81,1.42-1.24,2.12-2.08,3.32-5.22,4.34-8.94,4.06-.43,0-.87-.09-1.3-.16S59,62.54,58.65,62.47Z"/><path class="cls-2" d="M148.49,15.23l6.47-.35a1.38,1.38,0,0,1,.62.08.79.79,0,0,1,.6.83,3.63,3.63,0,0,1-.81,1.75c-.57.82-1,1.22-1.38,1.22a.69.69,0,0,1-.39-.12.56.56,0,0,1-.25-.49,1.15,1.15,0,0,1,.13-.48,2.8,2.8,0,0,0,.34-.94c0-.14-.1-.21-.32-.19l-5,.27V20a.81.81,0,0,1-.22.58,1.16,1.16,0,0,1-.89.34,1.05,1.05,0,0,1-1-.47.84.84,0,0,1-.12-.45v-3l-5.09.27a6.36,6.36,0,0,1-.26,1.49,1.1,1.1,0,0,1-1.08.93,1.31,1.31,0,0,1-.52-.11.92.92,0,0,1-.57-.91,2.26,2.26,0,0,1,.24-.85,12,12,0,0,0,.55-1.89.78.78,0,0,1,.84-.68.72.72,0,0,1,.74.45l5.15-.28v-.89l-3.69.22h-.11a.75.75,0,0,1-.61-.29.78.78,0,0,1-.17-.5.72.72,0,0,1,.74-.83l9.82-.59h.06a.85.85,0,0,1,.51.15.76.76,0,0,1,.32.65.77.77,0,0,1-.4.72,1,1,0,0,1-.34.09l-3.92.24Zm-2.12,12.3-2.34.11v.06c0,.61-.34.92-1.15.92s-1.1-.31-1.16-.92l-.49-5.42a1.14,1.14,0,0,1,0-.15.79.79,0,0,1,.47-.81,1.56,1.56,0,0,1,.73-.14,1.1,1.1,0,0,1,1,.44l8.74-.54h.13a1.47,1.47,0,0,1,1.07.36,1.28,1.28,0,0,1,.4,1c0,.11,0,.2,0,.27l-.55,4c-.08.64-.5,1-1.24,1a1.13,1.13,0,0,1-.88-.3l-2.57.13v.63a.46.46,0,0,0,.35.51,7.75,7.75,0,0,0,1.54.09,24.49,24.49,0,0,0,3.21-.13.83.83,0,0,0,.74-.68,11.28,11.28,0,0,0,.13-1.23c0-.47.25-.71.67-.71s.6.22.77.66a5.12,5.12,0,0,1,.21.83,8.08,8.08,0,0,1,.15,1.42,1.46,1.46,0,0,1-1.23,1.54,24.44,24.44,0,0,1-4.42.25,12.44,12.44,0,0,1-3.29-.26,1.48,1.48,0,0,1-1-1.52Zm-4-8.28a12.58,12.58,0,0,1,2.27.33c.46.1.69.31.69.64a.58.58,0,0,1-.05.26.65.65,0,0,1-.66.45,1.46,1.46,0,0,1-.5-.13c-.63-.24-1.25-.44-1.86-.62-.28-.09-.42-.24-.42-.48S142,19.25,142.38,19.25Zm.14-1.76a11.58,11.58,0,0,1,2.28.33c.46.09.7.31.7.65a.6.6,0,0,1-.69.68,1.62,1.62,0,0,1-.52-.12c-.49-.18-1.11-.37-1.87-.59-.28-.08-.42-.23-.42-.46S142.18,17.49,142.52,17.49Zm3.85,6.29v-.91l-2.72.17.07.89Zm0,1.29-2.55.15.08.93,2.47-.12Zm2.15-1.41,2.73-.15.07-.67c0-.21-.09-.3-.28-.29l-2.52.17Zm0,2.26L151,25.8l.09-1-2.6.15Zm1.17-7a9.67,9.67,0,0,1,2.24.33c.46.11.68.33.68.66a.72.72,0,0,1-.05.28.61.61,0,0,1-.62.4,1.64,1.64,0,0,1-.54-.14,18.49,18.49,0,0,0-1.87-.58.47.47,0,0,1-.42-.47C149.11,19.07,149.31,18.91,149.69,18.91Zm.12-1.76a13.12,13.12,0,0,1,2.25.32c.47.1.71.31.71.66a.79.79,0,0,1-.05.24.63.63,0,0,1-.67.45,1.71,1.71,0,0,1-.5-.13,12.35,12.35,0,0,0-1.88-.59.47.47,0,0,1-.4-.49C149.27,17.31,149.45,17.15,149.81,17.15Z"/><path class="cls-2" d="M165.77,17.82l-6.24.53h-.1c-.6,0-.89-.32-.89-1s.26-.89.79-.93l6.22-.55h.11a.83.83,0,0,1,.84.59,1.21,1.21,0,0,1,.07.43A.8.8,0,0,1,165.77,17.82Zm.11,10a.89.89,0,0,1,.38.79.79.79,0,0,1-.79.9l-3.5.3c-.1.44-.44.65-1,.65a.89.89,0,0,1-1-.87l-.42-4.28c0-.06,0-.1,0-.12a.86.86,0,0,1,.41-.77,1.12,1.12,0,0,1,.62-.16,1.21,1.21,0,0,1,.82.27l3.15-.33.35,0c1,0,1.43.44,1.43,1.31a2.53,2.53,0,0,1-.06.45Zm-.94-7.21-4.16.37h-.1a.73.73,0,0,1-.75-.52,1,1,0,0,1-.07-.4.75.75,0,0,1,.74-.85l4.15-.38h.12a.77.77,0,0,1,.69.37,1,1,0,0,1,.13.52A.77.77,0,0,1,164.94,20.56Zm0,2.6-4.16.38h-.08a.76.76,0,0,1-.49-.16.88.88,0,0,1-.35-.76.74.74,0,0,1,.73-.85l4.21-.35h.11a.74.74,0,0,1,.66.35,1,1,0,0,1,.14.51A.78.78,0,0,1,165,23.16Zm-3.48-10.63a8.61,8.61,0,0,1,2.73.89c.59.26.88.62.88,1.09A1.1,1.1,0,0,1,165,15a1,1,0,0,1-1,.58,1.46,1.46,0,0,1-.87-.37A15.19,15.19,0,0,0,161.25,14q-.57-.33-.57-.75C160.68,12.78,161,12.53,161.48,12.53ZM164,27.8l.15-1.36,0-.2v0a.24.24,0,0,0-.27-.27l-.27,0-1.89.2.15,1.83Zm8.71-9.53L176,18h.11c.61,0,.91.34.91,1s-.3,1-.88,1.08l-3.44.31v2.77l1.42-.11.32,0c1,0,1.51.47,1.51,1.41a3.71,3.71,0,0,1,0,.54l-.44,2.64a.9.9,0,0,1,.47.88c0,.64-.27,1-.81,1l-5.13.31c-.13.44-.5.65-1.12.65a.86.86,0,0,1-1-.83l-.58-5.51a1.36,1.36,0,0,1,0-.15.78.78,0,0,1,.4-.73,1.42,1.42,0,0,1,.72-.17,1.07,1.07,0,0,1,.89.36l1.17-.1V20.57l-3.33.28H167a.78.78,0,0,1-.69-.36,1.29,1.29,0,0,1-.18-.71c0-.63.27-1,.83-1l3.51-.31V16.1l-.43.1a16.26,16.26,0,0,1-2.07.4c-.55,0-.82-.3-.82-.89a.73.73,0,0,1,.43-.7,4.19,4.19,0,0,1,.7-.21,33.63,33.63,0,0,0,5.16-1.89,1.65,1.65,0,0,1,.69-.16,1,1,0,0,1,.87.45,1.28,1.28,0,0,1,.22.72,1,1,0,0,1-.69.94,14.59,14.59,0,0,1-1.84.64Zm.66,9.37.27-2a2.49,2.49,0,0,0,0-.32c0-.17-.09-.25-.27-.25l-.27,0-3.51.29.25,2.49Z"/><path class="cls-2" d="M188.83,17.66c-1.42.34-3.11.66-5.08,1-1.71.26-2.68.4-2.93.4-.79,0-1.19-.44-1.19-1.3a1,1,0,0,1,.74-1.07,8.13,8.13,0,0,1,1.09-.14c1.08-.11,2.55-.3,4.39-.58,2.25-.34,4.11-.66,5.59-1a3.35,3.35,0,0,1,.56-.06,1.11,1.11,0,0,1,1.06.65,1.81,1.81,0,0,1,.2.79,1,1,0,0,1-.8,1,7.23,7.23,0,0,0-2.91,2A5.78,5.78,0,0,0,188,23.43a3.5,3.5,0,0,0,.93,2.48,4.5,4.5,0,0,0,2.17,1.23,1.19,1.19,0,0,1,1,1.21,1.45,1.45,0,0,1-.29.9,1,1,0,0,1-.89.41,4.54,4.54,0,0,1-2.29-.86,5.86,5.86,0,0,1-3-5.23,6.93,6.93,0,0,1,2.34-5.2c.22-.2.47-.41.75-.62Zm4.74-4.27c.36,0,.94.37,1.74,1.1s1,1.1,1,1.46a.86.86,0,0,1-.32.66,1,1,0,0,1-.59.21.9.9,0,0,1-.76-.51,10.07,10.07,0,0,0-1.37-1.77A.9.9,0,0,1,193,14,.49.49,0,0,1,193.57,13.39Zm1.62-1.49a3.17,3.17,0,0,1,1.67.93c.67.57,1,1.06,1,1.46a.79.79,0,0,1-.32.67.87.87,0,0,1-.52.17.89.89,0,0,1-.73-.49A10,10,0,0,0,194.92,13a.88.88,0,0,1-.31-.58.52.52,0,0,1,.16-.37A.54.54,0,0,1,195.19,11.9Z"/></g></g></svg>