<svg xmlns="http://www.w3.org/2000/svg" viewBox="0 0 74 259"><defs><style>.cls-1{font-size:20.69px;font-family:UDDigiKyokashoN-B, UD Digi Kyokasho N-B;}.cls-1,.cls-5{fill:#46372c;}.cls-2{fill:#06c755;}.cls-3{fill:#fff;}.cls-4{fill:#ebddca;}</style></defs><g id="レイヤー_2" data-name="レイヤー 2"><g id="レイヤー_1-2" data-name="レイヤー 1"><text class="cls-1" transform="translate(27.4 223.99)">20</text><rect class="cls-2" x="21.31" y="9.63" width="31.37" height="31.37" rx="5.28"/><path class="cls-3" d="M47.46,23.84c0-4.68-4.7-8.49-10.46-8.49s-10.46,3.81-10.46,8.49c0,4.19,3.72,7.71,8.74,8.37.35.07.81.23.93.52a2.13,2.13,0,0,1,0,.94s-.12.74-.15.9-.21,1,.91.56a33.92,33.92,0,0,0,8.21-6.07h0A7.54,7.54,0,0,0,47.46,23.84Z"/><path class="cls-2" d="M44,26.54H41a.2.2,0,0,1-.2-.2h0V21.78h0a.19.19,0,0,1,.2-.19H44a.19.19,0,0,1,.2.19v.75a.2.2,0,0,1-.2.2H42v.77h2a.2.2,0,0,1,.2.2v.74a.2.2,0,0,1-.2.2H42v.77h2a.2.2,0,0,1,.2.2v.74A.2.2,0,0,1,44,26.54Z"/><path class="cls-2" d="M33.11,26.54a.2.2,0,0,0,.2-.2V25.6a.2.2,0,0,0-.2-.2h-2V21.77a.19.19,0,0,0-.2-.19h-.74a.19.19,0,0,0-.2.19v4.57h0a.2.2,0,0,0,.2.2h2.94Z"/><rect class="cls-2" x="33.93" y="21.58" width="1.14" height="4.96" rx="0.2"/><path class="cls-2" d="M39.93,21.58h-.75a.19.19,0,0,0-.2.19v2.72L36.9,21.67l0,0H36a.19.19,0,0,0-.2.19v4.57a.2.2,0,0,0,.2.2h.74a.2.2,0,0,0,.2-.2V23.63L39,26.45s0,0,0,.05h.86a.2.2,0,0,0,.2-.2V21.77A.19.19,0,0,0,39.93,21.58Z"/><path class="cls-3" d="M16.13,258.5A15.65,15.65,0,0,1,.5,242.87V.5h73v258Z"/><path class="cls-4" d="M73,1V258H16.13A15.15,15.15,0,0,1,1,242.87V1H73m1-1H0V242.87A16.13,16.13,0,0,0,16.13,259H74V0Z"/><rect class="cls-2" x="19.03" y="8.63" width="35.93" height="34.37" rx="6.93"/><path class="cls-3" d="M49,24.2c0-5.13-5.38-9.3-12-9.3s-12,4.17-12,9.3c0,4.59,4.26,8.44,10,9.17.39.08.92.25,1.05.57a2.24,2.24,0,0,1,0,1L36,36c-.05.29-.24,1.14,1,.62a38.87,38.87,0,0,0,9.41-6.65h0A8.13,8.13,0,0,0,49,24.2Z"/><path class="cls-2" d="M45,27.16H41.63a.22.22,0,0,1-.23-.22h0v-5h0a.22.22,0,0,1,.23-.22H45a.22.22,0,0,1,.23.22v.81A.22.22,0,0,1,45,23H42.7v.84H45a.22.22,0,0,1,.23.22v.81a.22.22,0,0,1-.23.22H42.7v.85H45a.22.22,0,0,1,.23.21v.82A.22.22,0,0,1,45,27.16Z"/><path class="cls-2" d="M32.54,27.16a.22.22,0,0,0,.23-.22v-.82a.22.22,0,0,0-.23-.21H30.25v-4a.22.22,0,0,0-.23-.22h-.85a.22.22,0,0,0-.22.22v5h0a.22.22,0,0,0,.22.22h3.37Z"/><path class="cls-2" d="M34.57,21.72h-.85a.22.22,0,0,0-.23.22v5a.22.22,0,0,0,.23.22h.85a.23.23,0,0,0,.23-.22v-5A.23.23,0,0,0,34.57,21.72Z"/><path class="cls-2" d="M40.35,21.72H39.5a.23.23,0,0,0-.23.22v3l-2.39-3.09,0,0h-1a.23.23,0,0,0-.23.22v5a.23.23,0,0,0,.23.22h.85a.22.22,0,0,0,.23-.22V24l2.4,3.09,0,.06h1a.22.22,0,0,0,.23-.22v-5A.22.22,0,0,0,40.35,21.72Z"/><path class="cls-5" d="M34.2,114.65v12.77c0,.34.25.5.75.5h7a2.08,2.08,0,0,1,1.13.29,1.16,1.16,0,0,1,.63,1,1.24,1.24,0,0,1-.89,1.17,2.19,2.19,0,0,1-.87.15H33.35c-2.31,0-3.47-.74-3.47-2.23V114.65c0-.4.28-.7.85-.91a4,4,0,0,1,1.33-.21,3.45,3.45,0,0,1,1.53.31A.92.92,0,0,1,34.2,114.65Z"/><path class="cls-5" d="M34.38,139H32.44a2,2,0,0,1-1-.24,1,1,0,0,1-.54-.89,1,1,0,0,1,.75-1,2.06,2.06,0,0,1,.78-.13H40.7a2.06,2.06,0,0,1,1,.21,1,1,0,0,1,.57.91,1.06,1.06,0,0,1-.75,1,1.94,1.94,0,0,1-.78.14h-2v12.28h2a1.9,1.9,0,0,1,1,.24,1,1,0,0,1,.55.89,1,1,0,0,1-.75,1,2.05,2.05,0,0,1-.78.14H32.44a2,2,0,0,1-1-.22,1,1,0,0,1-.57-.91,1,1,0,0,1,.73-1,2.2,2.2,0,0,1,.8-.14h1.94Z"/><path class="cls-5" d="M33.35,165.85l.4,11a.82.82,0,0,1-.53.71,3.28,3.28,0,0,1-1.58.33,3,3,0,0,1-1.69-.41.73.73,0,0,1-.38-.63V162.26a1.4,1.4,0,0,1,.71-1.23,3.78,3.78,0,0,1,2.07-.49,2.7,2.7,0,0,1,2.7,1.32l4.69,9.7-.33-10a.84.84,0,0,1,.52-.71,3.54,3.54,0,0,1,1.59-.32,3,3,0,0,1,1.69.4.75.75,0,0,1,.38.63v14.65c0,1.09-.75,1.64-2.26,1.64a2.55,2.55,0,0,1-2.48-1.41Z"/><path class="cls-5" d="M33.89,195.15v4.44c0,.27.21.41.64.41H42.2a2.11,2.11,0,0,1,1.08.26,1.14,1.14,0,0,1,.63,1,1.19,1.19,0,0,1-.89,1.16,2.35,2.35,0,0,1-.82.14h-9c-2.31,0-3.47-.75-3.47-2.23V188c0-1.48,1.16-2.22,3.47-2.22h8.54a1.93,1.93,0,0,1,1.15.32,1.13,1.13,0,0,1,.52.94,1.17,1.17,0,0,1-.84,1.09,2.09,2.09,0,0,1-.83.15H34.53c-.43,0-.64.15-.64.44v4h6.67a2.09,2.09,0,0,1,1,.24,1.07,1.07,0,0,1,.61,1,1.09,1.09,0,0,1-.75,1,2.21,2.21,0,0,1-.89.16Z"/><path class="cls-5" d="M33.29,56.33c0-1,0-1.62,0-1.86a3.11,3.11,0,0,1,.12-1.11,1,1,0,0,1,1-.49,1,1,0,0,1,1,.52,1.06,1.06,0,0,1,.11.48V54c0,.72,0,1.35,0,1.88.43-.09.89-.21,1.4-.36a1.89,1.89,0,0,1,.54-.1.87.87,0,0,1,.79.49,1.29,1.29,0,0,1,.19.67,1.09,1.09,0,0,1-.87,1.06c-.49.16-1.17.33-2,.52,0,.26,0,.84,0,1.73,0,.45,0,.78,0,1a15.71,15.71,0,0,1,4-.56,5.67,5.67,0,0,1,3.27.86,3.42,3.42,0,0,1,1.47,3,3.71,3.71,0,0,1-1.43,3.1,4.82,4.82,0,0,1-3,.9,4.19,4.19,0,0,1-1.19-.13,1,1,0,0,1-.71-1,.69.69,0,0,1,.46-.71,2.82,2.82,0,0,1,1-.1,2.92,2.92,0,0,0,1.91-.57A1.88,1.88,0,0,0,42,64.17c0-1.35-.87-2-2.62-2a13,13,0,0,0-3.78.65v.3l0,3.71A1.92,1.92,0,0,1,35.26,68a1.69,1.69,0,0,1-1.41.63A5,5,0,0,1,31.59,68c-1.31-.66-2-1.44-2-2.34,0-1.4,1.24-2.71,3.72-4v-.13c0-.86,0-1.77,0-2.72v-.29a20,20,0,0,1-2.41.3c-.73,0-1.1-.39-1.1-1.18,0-.61.37-1,1.1-1S32.45,56.48,33.29,56.33Zm.1,7.44c-1,.64-1.58,1.23-1.58,1.79a.85.85,0,0,0,.37.63,1.35,1.35,0,0,0,.9.4c.15,0,.25,0,.28-.14a2.58,2.58,0,0,0,0-.67c0-.29,0-.88,0-1.77Zm7.49-9.71A4.4,4.4,0,0,1,43,55a7.57,7.57,0,0,1,1.2.93,1.2,1.2,0,0,1,.4.89,1.17,1.17,0,0,1-1.17,1.14,1.27,1.27,0,0,1-1-.53,13.92,13.92,0,0,0-2-1.82,1,1,0,0,1-.41-.74.77.77,0,0,1,.14-.44A.83.83,0,0,1,40.88,54.06Z"/><path class="cls-5" d="M33.86,73.54l7.82-.69h.11a.79.79,0,0,1,.82.9.73.73,0,0,1-.72.84l-9.44.79a19.41,19.41,0,0,1-1.81,1.69,1.18,1.18,0,0,1-.74.33.76.76,0,0,1-.59-.27.73.73,0,0,1-.21-.51,1.67,1.67,0,0,1,.55-1,15.91,15.91,0,0,0,2.43-3.48,1.19,1.19,0,0,1,1.05-.73,1.26,1.26,0,0,1,.57.14.94.94,0,0,1,.55.87,2,2,0,0,1-.35,1ZM39.28,80l-9.21.72a1,1,0,0,1-.58-.14.76.76,0,0,1-.38-.74c0-.58.26-.88.78-.93l10.4-.8h.35c1,0,1.57.48,1.57,1.44a5.38,5.38,0,0,1,0,.61,16.85,16.85,0,0,0-.08,1.8,7.33,7.33,0,0,0,.82,3.82,2.59,2.59,0,0,0,.31.38c.18.17.31.26.39.26s.17-.15.24-.45a9.92,9.92,0,0,0,.27-1.74c.05-.46.28-.69.71-.69s.71.38.71,1.14a9.92,9.92,0,0,1-.36,3.21A1.44,1.44,0,0,1,43.82,89a2.81,2.81,0,0,1-2-1Q40,86,40,81.79V80.66q0-.66-.6-.66Zm-3,4c.38.27.87.64,1.46,1.12a1.48,1.48,0,0,1,.64,1.1,1.07,1.07,0,0,1-.33.76,1,1,0,0,1-.77.36,1.15,1.15,0,0,1-.67-.24,5,5,0,0,1-.54-.5c-.29-.28-.7-.65-1.23-1.1a16,16,0,0,1-4.09,2.83,1.68,1.68,0,0,1-.74.22.72.72,0,0,1-.65-.4.77.77,0,0,1-.1-.38.8.8,0,0,1,.31-.61,4.9,4.9,0,0,1,.72-.49,18.83,18.83,0,0,0,3-2.45c-.65-.47-1.27-.9-1.88-1.28a1,1,0,0,1-.56-.8.79.79,0,0,1,.17-.49.76.76,0,0,1,.62-.3,1.69,1.69,0,0,1,.65.17c.44.21,1.19.64,2.26,1.3a16.15,16.15,0,0,0,1.23-1.73,1.28,1.28,0,0,1,1.1-.73,1.1,1.1,0,0,1,.67.22.94.94,0,0,1,.41.8,1.33,1.33,0,0,1-.23.73A16.16,16.16,0,0,1,36.33,84Zm3.93-6.84-7.76.65h-.13c-.51,0-.76-.26-.76-.79a.74.74,0,0,1,.74-.84l7.73-.63h.11a.81.81,0,0,1,.53.18.69.69,0,0,1,.27.6A.72.72,0,0,1,40.26,77.2Z"/><path class="cls-5" d="M33.41,101.87V103l2.5-.17H36a.73.73,0,0,1,.61.24.92.92,0,0,1,.23.68c0,.6-.25.91-.76.94l-2.66.18v2.63a.8.8,0,0,1-.27.62,1,1,0,0,1-.7.26,1,1,0,0,1-.88-.44.9.9,0,0,1-.11-.44v-2.51l-2.52.15h-.08a.7.7,0,0,1-.73-.48,1.31,1.31,0,0,1-.09-.5c0-.54.25-.83.74-.86l2.68-.18V102l-.81,0a.77.77,0,0,1-.78.42c-.54,0-.82-.24-.86-.72l-.4-5a.75.75,0,0,1,.26-.67,1,1,0,0,1,.6-.18,1,1,0,0,1,.73.25L31.45,96v-.91l-2.18.18h-.12a.71.71,0,0,1-.56-.24,1,1,0,0,1-.22-.68.73.73,0,0,1,.73-.85l2.35-.19V92.07a.77.77,0,0,1,.22-.57,1.07,1.07,0,0,1,.78-.29,1,1,0,0,1,.87.42.9.9,0,0,1,.11.44v1.08l2-.15a.8.8,0,0,1,.57.15.92.92,0,0,1,.33.77.74.74,0,0,1-.77.82l-2.09.18v.91l1.29-.11a1.66,1.66,0,0,1,.27,0q1.26,0,1.26,1.2a1.94,1.94,0,0,1,0,.27l-.34,4.28a.75.75,0,0,1-.86.76.73.73,0,0,1-.75-.4ZM31.6,98.29v-.84l-1.17.09.06.82Zm0,1.28-1,.06.06,1,1-.07Zm1.68-1.41,1.17-.08,0-.39v-.06c0-.28-.13-.41-.37-.38H34l-.76,0Zm0,1.3v.94l1-.07.06-.93Zm8.45,4.34v1.88l3.16-.17H45a.7.7,0,0,1,.59.25,1.08,1.08,0,0,1,.25.75c0,.65-.27,1-.83,1l-8.29.39h-.1a.7.7,0,0,1-.67-.39,1.37,1.37,0,0,1-.17-.68.85.85,0,0,1,.42-.8,1,1,0,0,1,.41-.11l3-.16v-1.85l-1.73.11h-.08c-.54,0-.82-.34-.82-1s.25-.89.75-.92l1.88-.12v-1.33a.82.82,0,0,1,.4-.74,1.16,1.16,0,0,1,.68-.21,1.18,1.18,0,0,1,.78.28.86.86,0,0,1,.3.67v1.2l2.07-.13a.82.82,0,0,1,.64.19,1,1,0,0,1,.3.76c0,.62-.28,1-.82,1Zm-1.17-7.74a8.08,8.08,0,0,0,1-1.52,1.29,1.29,0,0,0,.19-.51c0-.11-.09-.17-.26-.17h-.16l-3.57.32h-.11c-.52,0-.78-.35-.78-1s.25-.95.74-1L43,91.84h.2c.85,0,1.28.35,1.28,1.06A2.88,2.88,0,0,1,44.12,94a14.44,14.44,0,0,1-2,3.15A20.71,20.71,0,0,0,45.41,99c.45.2.68.41.68.63s-.15.35-.46.45a6.54,6.54,0,0,1-1.82.4c-.48,0-1.52-.64-3.11-1.93a15.35,15.35,0,0,1-2.7,1.88,2.66,2.66,0,0,1-1,.37.66.66,0,0,1-.59-.3.63.63,0,0,1-.14-.42.72.72,0,0,1,.32-.61,2.27,2.27,0,0,1,.36-.22,12.81,12.81,0,0,0,2.42-1.91,20,20,0,0,1-1.65-1.74,1.08,1.08,0,0,1-.27-.64.67.67,0,0,1,.21-.49.81.81,0,0,1,.55-.21,1.17,1.17,0,0,1,.8.43A16.55,16.55,0,0,0,40.56,96.06Z"/><path class="cls-5" d="M42,223.94l2.91-.15h.17a.82.82,0,0,1,.8.95c0,.61-.26.93-.79,1l-16,.73h0a.7.7,0,0,1-.54-.18.9.9,0,0,1-.32-.74q0-.94.84-1l2.82-.12v-6.62a.88.88,0,0,1,.47-.79,1.39,1.39,0,0,1,.72-.19,1.29,1.29,0,0,1,.89.33l6.44-.45h.13A1.3,1.3,0,0,1,42,218.12Zm-4-10.66v2.34a.85.85,0,0,1-.24.6,1.28,1.28,0,0,1-1,.38,1.16,1.16,0,0,1-1-.51.89.89,0,0,1-.13-.47V213.7a18.8,18.8,0,0,1-4.81,3.55,4.66,4.66,0,0,1-1.56.61.62.62,0,0,1-.58-.34.84.84,0,0,1-.14-.42.72.72,0,0,1,.3-.55,4.72,4.72,0,0,1,.74-.43,17.15,17.15,0,0,0,4.26-3.32l-3.57.24h-.08a.85.85,0,0,1-.8-.43,1.09,1.09,0,0,1-.13-.55c0-.63.29-1,.87-1l5.5-.38V209.1a.89.89,0,0,1,.48-.82,1.39,1.39,0,0,1,.72-.19,1.28,1.28,0,0,1,.83.28.87.87,0,0,1,.36.73v1.43l5.28-.36h.08a.86.86,0,0,1,.83.46,1.25,1.25,0,0,1,.12.56.84.84,0,0,1-.86,1l-4.26.29a25.13,25.13,0,0,0,5.87,3.08c.55.2.83.4.83.59s-.16.3-.47.42a6.28,6.28,0,0,1-2,.53,2.34,2.34,0,0,1-1.17-.46A29.34,29.34,0,0,1,38,213.28Zm1.65,5.9v-.44c0-.32-.16-.48-.48-.46l-4.88.34v.91Zm0,1.44L34.3,221v.92l5.36-.31Zm0,2.41-5.36.31v.94l5.36-.25Z"/><path class="cls-5" d="M38.24,237.21v2.08L42,239h.08a.83.83,0,0,1,.65.28A1,1,0,0,1,43,240a.88.88,0,0,1-.88,1l-3.88.26v2.55a43,43,0,0,0,7.41,1c.54,0,.81.14.81.34s-.19.36-.58.64A5.14,5.14,0,0,1,43.19,247a16.47,16.47,0,0,1-3.3-.56,26.62,26.62,0,0,1-5.14-1.82,20.09,20.09,0,0,1-2.44-1.34,10.72,10.72,0,0,1-2.13,2.69,1.77,1.77,0,0,1-1.06.55.84.84,0,0,1-.59-.26.77.77,0,0,1-.24-.55,1.85,1.85,0,0,1,.56-1,12.94,12.94,0,0,0,1.72-2.93,16.13,16.13,0,0,0,.81-2.16,1.09,1.09,0,0,1,1.1-.94,1.63,1.63,0,0,1,.57.1,1,1,0,0,1,.74,1,7,7,0,0,1-.7,2,16.07,16.07,0,0,0,2.73,1.3V237.4l-3.44.28h-.15c-.56,0-.84-.35-.84-1.06a.83.83,0,0,1,.84-1l9-.73h.13c.58,0,.88.36.88,1.06a.85.85,0,0,1-.87,1Zm-.12-5.78L44,231h.26c.87,0,1.3.34,1.3,1a4.27,4.27,0,0,1-1,2.19,9.89,9.89,0,0,1-.86,1.08,1,1,0,0,1-.68.34.73.73,0,0,1-.42-.14.58.58,0,0,1-.27-.51,1.58,1.58,0,0,1,.13-.54,4.16,4.16,0,0,0,.3-1.11c0-.16-.1-.24-.29-.24h-.12l-11,.83c-.11,1.91-.63,2.86-1.56,2.86a1.5,1.5,0,0,1-.64-.15,1,1,0,0,1-.65-1,2.12,2.12,0,0,1,.29-.87,7.31,7.31,0,0,0,.77-2.58.86.86,0,0,1,.93-.9.78.78,0,0,1,.82.65l4.28-.32v-1.89a.94.94,0,0,1,.52-.87,1.54,1.54,0,0,1,.74-.19,1.26,1.26,0,0,1,.95.37.89.89,0,0,1,.29.69Z"/></g></g></svg>