<svg id="レイヤー_1" data-name="レイヤー 1" xmlns="http://www.w3.org/2000/svg" viewBox="0 0 75 241.01"><path d="M0,0H75a0,0,0,0,1,0,0V241a0,0,0,0,1,0,0H15A15,15,0,0,1,0,226V0A0,0,0,0,1,0,0Z" style="fill:#fff"/><path d="M75,1V240H15A14,14,0,0,1,1,226V1H74m1-1H0V226a15,15,0,0,0,15,15H75V0Z" style="fill:#ebddca"/><path d="M39.56,63.79c0-.08,0-.95,0-1.22A10.48,10.48,0,0,1,37.88,65a23.81,23.81,0,0,1-3.35,3A24.73,24.73,0,0,1,32,69.47,4.89,4.89,0,0,0,30.6,67.7,18,18,0,0,0,36,64a16,16,0,0,0,2.28-2.8H33.58a16.37,16.37,0,0,0-2.1.08V59.22a9.89,9.89,0,0,0,2.15.12h5.88l0-1.36a15.1,15.1,0,0,0-.08-1.57h2.24a11.06,11.06,0,0,0-.07,1.45V58l0,1.38h1.71a9.86,9.86,0,0,0,2-.12v2.05a18.36,18.36,0,0,0-2-.06H41.63l.09,7.88c0,.84.05,1.48.1,2H39.51a10.67,10.67,0,0,0,.1-1.63v-.31l0-5.08Z" style="fill:#46372c"/><path d="M31.82,84.77a16.36,16.36,0,0,0,5-1.26,11.4,11.4,0,0,0,5-4.16A14.3,14.3,0,0,0,43.64,76a7.33,7.33,0,0,0,1.8,1.66,14.84,14.84,0,0,1-5.39,6.66,18.24,18.24,0,0,1-6.47,2.55,6.76,6.76,0,0,0-1.13.29Zm1.45-10.56a23.94,23.94,0,0,1,4.38,3.28l-1.46,1.86a17.63,17.63,0,0,0-4.33-3.45Z" style="fill:#46372c"/><path d="M45,95.94A6.87,6.87,0,0,0,44.49,97a12,12,0,0,1-4,5.74,14.94,14.94,0,0,1-4.45,2.32,5.94,5.94,0,0,0-1.33-2,10.92,10.92,0,0,0,4.73-2.24,8.82,8.82,0,0,0,2.74-4H34a16.74,16.74,0,0,0-2.18.09V94.88A11.38,11.38,0,0,0,34,95h8.09A7.49,7.49,0,0,0,44,94.85ZM33.22,90.79a9.81,9.81,0,0,0,2,.12h5.93a9.81,9.81,0,0,0,2-.12v2.09a12.67,12.67,0,0,0-2-.09h-6a12.6,12.6,0,0,0-2,.09Z" style="fill:#46372c"/><path d="M44.73,109a7.25,7.25,0,0,0-.63.6,30.11,30.11,0,0,1-4,3.5v7.26a12.84,12.84,0,0,0,.08,1.89H37.79a9.31,9.31,0,0,0,.1-1.84v-6a27.45,27.45,0,0,1-6.07,2.75,6.44,6.44,0,0,0-1.13-1.94,24.72,24.72,0,0,0,8.92-4.42,13.58,13.58,0,0,0,3.16-3.17Z" style="fill:#46372c"/><path d="M31.82,136.79a16.36,16.36,0,0,0,5-1.26,11.4,11.4,0,0,0,5-4.16,14.3,14.3,0,0,0,1.74-3.4,7.33,7.33,0,0,0,1.8,1.66,14.84,14.84,0,0,1-5.39,6.66,18.24,18.24,0,0,1-6.47,2.55,6.76,6.76,0,0,0-1.13.29Zm1.45-10.56a23.94,23.94,0,0,1,4.38,3.28l-1.46,1.86a17.63,17.63,0,0,0-4.33-3.45Z" style="fill:#46372c"/><path d="M44.51,144.06a18.88,18.88,0,0,1-2,1.62c-1,.7-1.75,1.17-2.63,1.72.37.23.39.25.8.52l-.51.51h3a14.63,14.63,0,0,0,1.89-.08l1.07,1.14s-.39.49-1.11,1.44a15.59,15.59,0,0,1-2.7,2.81,5.42,5.42,0,0,0-1.5-1.28,10.92,10.92,0,0,0,2.47-2.31H39.41V156c0,1.39-.57,1.77-2.66,1.77-.56,0-1.41,0-1.93-.06a7.45,7.45,0,0,0-.5-1.88,17.32,17.32,0,0,0,2.48.17c.57,0,.68-.09.68-.46v-5.39H33a17.38,17.38,0,0,0-2.14.1v-1.92a16.71,16.71,0,0,0,2.22.1h5.26A36.17,36.17,0,0,0,34.58,146l1.24-1.16c1.12.62,1.49.85,2.5,1.48a19,19,0,0,0,2.7-1.75H34.39a14.87,14.87,0,0,0-2.06.09v-1.89a14.7,14.7,0,0,0,2.1.1H42a10.44,10.44,0,0,0,1.46-.07Z" style="fill:#46372c"/><path d="M32.86,169.67a19.22,19.22,0,0,1-.83,5l-1.52-.7a15.72,15.72,0,0,0,.8-4.57ZM30.6,167.1a5,5,0,0,0,.73.05l.68,0c.58-.71.65-.8,1-1.24a15.77,15.77,0,0,0-2.33-2.51l1-1.41.51.59a12.59,12.59,0,0,0,1.41-2.75l1.61.66a6.24,6.24,0,0,0-.35.61,22.35,22.35,0,0,1-1.59,2.6c.29.34.48.55.72.85a18.63,18.63,0,0,0,1.83-3l1.57.9a8.05,8.05,0,0,0-.56.78,45.7,45.7,0,0,1-2.87,3.83c1-.06,1.07-.06,1.93-.16a9.29,9.29,0,0,0-.49-1.15l1.27-.51A23.63,23.63,0,0,1,38,168.56l-1.43.6c-.08-.39-.12-.53-.19-.8-.51,0-.9.1-1.2.12v5.35a12.29,12.29,0,0,0,.1,1.82H33.39a12.29,12.29,0,0,0,.1-1.82v-5.2c-.73.05-1.26.08-1.6.12a10.12,10.12,0,0,0-1.1.1Zm6.58,2.23a39,39,0,0,1,.81,4.33l-1.54.37a40,40,0,0,0-.65-4.36ZM40,164.16a11.67,11.67,0,0,1-1.7,2.68A5,5,0,0,0,37,165.47a11,11,0,0,0,2-3.39,10.73,10.73,0,0,0,.62-2.14l1.9.34a4.2,4.2,0,0,0-.22.7c-.22.7-.29.9-.5,1.43h3.71a9.33,9.33,0,0,0,1.39-.07,24.94,24.94,0,0,0-.08,3c0,1.94-.2,4.89-.39,6.29-.27,1.95-.58,2.89-1.14,3.33a3.69,3.69,0,0,1-2.18.44c-.44,0-1,0-1.58-.07a6.78,6.78,0,0,0-.47-1.9,13.43,13.43,0,0,0,2.22.22c.77,0,1-.2,1.16-1.26a47.21,47.21,0,0,0,.54-8.19Zm.78,7.1A18.31,18.31,0,0,0,38.86,167l1.48-.82a19.43,19.43,0,0,1,2.09,4.27Z" style="fill:#46372c"/><g id="長方形_3_クリッピングパス" data-name="長方形 3 クリッピングパス"><circle cx="38.28" cy="204.49" r="19" transform="translate(-165.29 161.6) rotate(-67.5)" style="fill:#ebe428"/></g><path d="M29.81,199.25V202a8.66,8.66,0,0,0,.08,1.42H28.55c0-.38.06-.89.06-1.42v-2.45a1.24,1.24,0,0,0,0-.3,11.1,11.1,0,0,1-1.3,1.07,3.84,3.84,0,0,0-.6-1.15,8.53,8.53,0,0,0,1.68-1.34,7.5,7.5,0,0,0,1.47-2.08H28.22a9,9,0,0,0-1,.06v-1.22a6,6,0,0,0,1.07.06h.39v-.84a5.82,5.82,0,0,0-.07-1h1.34a4.66,4.66,0,0,0-.06,1v.84h.23a4.14,4.14,0,0,0,.81,0l.53.67c-.07.1-.12.23-.25.48a10.68,10.68,0,0,1-1.24,2.07,3,3,0,0,0,.4.39,6.49,6.49,0,0,0,1.1-1.63l.89.69a11.73,11.73,0,0,1-1.21,1.55,6,6,0,0,0,.73.46,4.21,4.21,0,0,0-.65,1,10.76,10.76,0,0,1-1.39-1.15Zm3-4.52a10.22,10.22,0,0,0-1.37.07v-1.25a12.66,12.66,0,0,0,1.37.07h3.33a8.77,8.77,0,0,0,1.1-.06,23.67,23.67,0,0,0-.08,2.46,32.61,32.61,0,0,1-.46,6.1,1.27,1.27,0,0,1-.62.83,2.5,2.5,0,0,1-1.16.18c-.34,0-.48,0-1.21,0a3.57,3.57,0,0,0-.28-1.28,11,11,0,0,0,1.45.12c.49,0,.6-.14.73-.92.09-.49.19-1.76.24-2.69,0-1.16,0-1.53.07-3.58h-1.6a16.68,16.68,0,0,1-.47,4.28,8.4,8.4,0,0,1-1.39,3,10,10,0,0,1-1.23,1.33,3.84,3.84,0,0,0-.91-1.08A5.74,5.74,0,0,0,32,200.16a9.61,9.61,0,0,0,1-4c0-.47,0-.58,0-1.46Z" style="fill:#46372c"/><path d="M43.36,195.88H40.6a5.89,5.89,0,0,0-.92.05v-1.2a4.63,4.63,0,0,0,.92.06h2.28a5.36,5.36,0,0,0,.92,0v.87A7.23,7.23,0,0,0,46,192.94h1.4a7.1,7.1,0,0,0,1.45,1.83,8.63,8.63,0,0,0,1.67,1.13,4.75,4.75,0,0,0-.63,1.21A9.38,9.38,0,0,1,46.76,194,8.69,8.69,0,0,1,44,197a3.73,3.73,0,0,0-.83-1ZM40,203.41a10.42,10.42,0,0,0,.06-1.13V200.6a6.25,6.25,0,0,0,0-.9,5.61,5.61,0,0,0,.9.05h1.86a5,5,0,0,0,.8,0,7.68,7.68,0,0,0,0,.83v1.75a8.44,8.44,0,0,0,.05,1H42.45v-.38H41.18v.54Zm0-10.3a4.63,4.63,0,0,0,.93.06h1.62a4.81,4.81,0,0,0,.93-.06v1.12a6,6,0,0,0-.93,0H41a6.19,6.19,0,0,0-.93,0Zm0,3.36a5,5,0,0,0,.73,0h2a5.93,5.93,0,0,0,.7,0v1.08a6.54,6.54,0,0,0-.7,0h-2a6.78,6.78,0,0,0-.73,0Zm0,1.62a3.73,3.73,0,0,0,.73,0h2a3.47,3.47,0,0,0,.72,0v1.08a6.65,6.65,0,0,0-.73,0h-2a6.62,6.62,0,0,0-.71,0Zm1.09,3.76h1.27v-1.11H41.18Zm6.65-5.61-.32.33a9.14,9.14,0,0,1-3,2.25,4.57,4.57,0,0,0-.66-.94,6.76,6.76,0,0,0,3.06-2.39Zm1.2,1.67a17.37,17.37,0,0,1-1.31,1.31,11,11,0,0,1-1.84,1.26,10.49,10.49,0,0,1-1.22.57,5.05,5.05,0,0,0-.76-1,8.73,8.73,0,0,0,3.15-1.75,4.7,4.7,0,0,0,1-1.15Zm1.24,1.76c-.2.23-.2.23-.86.94A10.38,10.38,0,0,1,47,202.52a12,12,0,0,1-2.23.94,3.73,3.73,0,0,0-.77-1.05,10,10,0,0,0,3.88-1.94,6.36,6.36,0,0,0,1.47-1.6Z" style="fill:#46372c"/><path d="M27.45,207.19c0-.36,0-.55,0-1.06a7.6,7.6,0,0,0,.84,0H30a4.14,4.14,0,0,0,.84-.06l.65.8a8.75,8.75,0,0,0-.35.88,18.89,18.89,0,0,1-.89,2,4.63,4.63,0,0,1,.82,1.47,4.11,4.11,0,0,1,.18,1.14c0,.68-.2,1.11-.62,1.31a3,3,0,0,1-1.46.21,2.83,2.83,0,0,0-.24-1.21,4.7,4.7,0,0,0,.5,0c.45,0,.6-.13.6-.51a3.18,3.18,0,0,0-.25-1.19,4.5,4.5,0,0,0-.8-1.17A14.38,14.38,0,0,0,30,207.27H28.66v7.82c0,.49,0,.91.06,1.33H27.38a9.67,9.67,0,0,0,.07-1.33Zm5.27,4.19v3.3a15.29,15.29,0,0,0,1.91-.49l0,1.16c-1.2.35-2,.54-3.67.92a5,5,0,0,0-.59.16l-.23-1.3a10.17,10.17,0,0,0,1.36-.2v-7.5a11.67,11.67,0,0,0-.05-1.23,5.49,5.49,0,0,0,1.1.06h3.3A5.82,5.82,0,0,0,37,206.2a11.44,11.44,0,0,0,0,1.28v2.68a10,10,0,0,0,0,1.25l-.33,0,.94.79a2.6,2.6,0,0,0-.32.25c-.36.31-1.06.85-1.56,1.19a6,6,0,0,0,2.12,1.64,4.44,4.44,0,0,0-.73,1.17,7.54,7.54,0,0,1-2.4-2.23,7.78,7.78,0,0,1-1.14-2.82Zm0-3.08h3v-.94h-3Zm0,2h3v-1h-3Zm1.93,1a6.32,6.32,0,0,0,.45,1.3,7.84,7.84,0,0,0,1.5-1.29h-2Z" style="fill:#46372c"/><path d="M44.42,210.26H42.73a7.72,7.72,0,0,0-1.17.06V209.1a7.27,7.27,0,0,0,1.17.06h4.4a7.55,7.55,0,0,0,1.19-.06v1.22a7.7,7.7,0,0,0-1.19-.06h-1.5v1.47H47.8a6.8,6.8,0,0,0,1.13-.06v1.23a7.24,7.24,0,0,0-1.13-.06H45.63v2a13.45,13.45,0,0,0,1.87.11c.67,0,1.45,0,2.62-.13a4.66,4.66,0,0,0-.32,1.31c-.94,0-1.54,0-2.45,0-2.69,0-4.2-.58-5.14-2a8.18,8.18,0,0,1-1.58,2.26,3.12,3.12,0,0,0-1-.95A7,7,0,0,0,41.85,211l1.28.24a5.35,5.35,0,0,0-.16.68c-.06.23-.13.49-.3,1a3.33,3.33,0,0,0,1.75,1.6Zm-.2-3.69a3.51,3.51,0,0,0-.07-.74h1.42a3.27,3.27,0,0,0-.06.73V207h3.11c.46,0,.85,0,1.27,0a7.24,7.24,0,0,0,0,.85v.9a8.64,8.64,0,0,0,0,.9H48.65v-1.44H41.22v1.44H39.94a4.76,4.76,0,0,0,.06-.91v-.89a7.48,7.48,0,0,0,0-.85c.42,0,.81,0,1.27,0h3Z" style="fill:#46372c"/><path d="M28.59,43.69H48A3.7,3.7,0,0,0,51.66,40V21.66A3.69,3.69,0,0,0,48,18H46.51V17a1,1,0,0,0-2.06,0v1H32.11V17a1,1,0,0,0-2.06,0v1H28.59a3.68,3.68,0,0,0-3.68,3.69V40a3.68,3.68,0,0,0,3.68,3.68ZM27,21.69a1.63,1.63,0,0,1,1.63-1.63h1.46v1a1,1,0,0,0,2.06,0v-1H44.43v1a1,1,0,0,0,2.06,0v-1H48a1.63,1.63,0,0,1,1.63,1.63V40A1.63,1.63,0,0,1,48,41.64H28.59A1.63,1.63,0,0,1,27,40h0Z" style="fill:#46372c"/><path d="M39.41,32.75a2,2,0,0,1-1.13.34,2.08,2.08,0,0,1-1.13-.34l-5.53-3.69L31.53,29V35a1.24,1.24,0,0,0,1.24,1.25h11A1.25,1.25,0,0,0,45,35V29l-.09.07Z" style="fill:#46372c"/><path d="M32.06,28.4l5.53,3.69a1.24,1.24,0,0,0,1.38,0l5.54-3.69a1.19,1.19,0,0,0,.53-1,1.24,1.24,0,0,0-1.24-1.24h-11a1.24,1.24,0,0,0-1.24,1.24A1.19,1.19,0,0,0,32.06,28.4Z" style="fill:#46372c"/></svg>