<?xml version="1.0" encoding="utf-8"?>
<!-- Generator: Adobe Illustrator 25.0.0, SVG Export Plug-In . SVG Version: 6.00 Build 0)  -->
<svg version="1.1" id="レイヤー_1" xmlns="http://www.w3.org/2000/svg" xmlns:xlink="http://www.w3.org/1999/xlink" x="0px"
	 y="0px" viewBox="0 0 21 21" style="enable-background:new 0 0 21 21;" xml:space="preserve">
<style type="text/css">
	.st0{fill:#FFFFFF;}
	.st1{fill:#846D52;}
</style>
<circle class="st0" cx="10.5" cy="10.5" r="10.5"/>
<g>
	<path class="st1" d="M6.2,15.5c-0.2,0-0.4-0.1-0.5-0.2c-0.3-0.3-0.3-0.8,0-1.1l8.6-8.6c0.3-0.3,0.8-0.3,1.1,0s0.3,0.8,0,1.1
		l-8.6,8.6C6.5,15.5,6.4,15.5,6.2,15.5z"/>
	<path class="st1" d="M15.5,14.8c0,0.2-0.1,0.4-0.2,0.5c-0.3,0.3-0.8,0.3-1.1,0L5.6,6.7c-0.3-0.3-0.3-0.8,0-1.1s0.8-0.3,1.1,0
		l8.6,8.6C15.5,14.4,15.5,14.6,15.5,14.8z"/>
</g>
</svg>
