<?xml version="1.0"?>
<svg xmlns="http://www.w3.org/2000/svg" xmlns:xlink="http://www.w3.org/1999/xlink" xmlns:svgjs="http://svgjs.com/svgjs" version="1.1" width="512" height="512" x="0" y="0" viewBox="0 0 64 64" style="enable-background:new 0 0 512 512" xml:space="preserve" class=""><g><g xmlns="http://www.w3.org/2000/svg" id="Layer_7" data-name="Layer 7"><path d="M62.205,23.174,59,16.764A4.973,4.973,0,0,0,54.528,14H7.123a4.993,4.993,0,0,0-4.851,3.787L.508,24.847A16.99,16.99,0,0,0,0,28.97V43a3,3,0,0,0,3,3H8.35a5.99,5.99,0,0,0,11.3,0h24.7a5.99,5.99,0,0,0,11.3,0H61a3,3,0,0,0,3-3V30.777A17.087,17.087,0,0,0,62.205,23.174ZM62,36H61a1,1,0,0,1,0-2h1ZM2,34a1,1,0,0,1,1,1v2a1,1,0,0,1-1,1ZM14,48a4,4,0,1,1,4-4A4,4,0,0,1,14,48Zm36,0a4,4,0,1,1,4-4A4,4,0,0,1,50,48Zm11-4H56a6,6,0,0,0-12,0H20A6,6,0,0,0,8,44H3a1,1,0,0,1-1-1V40a3,3,0,0,0,3-3V35a3,3,0,0,0-3-3V31H41a1,1,0,0,0,0-2H2v-.03a15.013,15.013,0,0,1,.447-3.638l1.765-7.06A3,3,0,0,1,7.123,16H54.528a2.983,2.983,0,0,1,2.683,1.658l3.2,6.411A15.062,15.062,0,0,1,61.891,29H45a1,1,0,0,0,0,2H62v1H61a3,3,0,0,0,0,6h1v5A1,1,0,0,1,61,44Z" fill="#bb9d72" data-original="#000000" style="" class=""/><path d="M45,28H59a1,1,0,0,0,.914-1.406l-3.472-7.813A3,3,0,0,0,53.7,17H45a1,1,0,0,0-1,1v9A1,1,0,0,0,45,28Zm1-9h7.7a1,1,0,0,1,.914.594L57.461,26H46Z" fill="#bb9d72" data-original="#000000" style="" class=""/><path d="M41,17H26a1,1,0,0,0-1,1v9a1,1,0,0,0,1,1H41a1,1,0,0,0,1-1V18A1,1,0,0,0,41,17Zm-1,9H27V19H40Z" fill="#bb9d72" data-original="#000000" style="" class=""/><path d="M22,17H10.6a2.981,2.981,0,0,0-2.928,2.349L6.023,26.783A1,1,0,0,0,7,28H22a1,1,0,0,0,1-1V18A1,1,0,0,0,22,17Zm-1,9H8.247l1.382-6.217A.992.992,0,0,1,10.6,19H21Z" fill="#bb9d72" data-original="#000000" style="" class=""/><path d="M49,32H47a1,1,0,0,0,0,2h2a1,1,0,0,0,0-2Z" fill="#bb9d72" data-original="#000000" style="" class=""/><path d="M39,32H37a1,1,0,0,0,0,2h2a1,1,0,0,0,0-2Z" fill="#bb9d72" data-original="#000000" style="" class=""/><path d="M50,41a3,3,0,1,0,3,3A3,3,0,0,0,50,41Zm0,4a1,1,0,1,1,1-1A1,1,0,0,1,50,45Z" fill="#bb9d72" data-original="#000000" style="" class=""/><path d="M14,41a3,3,0,1,0,3,3A3,3,0,0,0,14,41Zm0,4a1,1,0,1,1,1-1A1,1,0,0,1,14,45Z" fill="#bb9d72" data-original="#000000" style="" class=""/></g></g></svg>
