<?xml version="1.0" encoding="utf-8"?>
<!-- Generator: Adobe Illustrator 25.0.0, SVG Export Plug-In . SVG Version: 6.00 Build 0)  -->
<svg version="1.1" id="レイヤー_1" xmlns:svgjs="http://svgjs.com/svgjs"
	 xmlns="http://www.w3.org/2000/svg" xmlns:xlink="http://www.w3.org/1999/xlink" x="0px" y="0px" viewBox="0 0 512 512"
	 style="enable-background:new 0 0 512 512;" xml:space="preserve">
<style type="text/css">
	.st0{fill:#BB9D72;}
</style>
<g>
	<path class="st0" d="M206.3,480C206.2,480,206.2,480,206.3,480c-15.1,0-29.2-5.9-39.8-16.5L16.9,313.7c-21.9-21.9-21.9-57.6,0-79.5
		l201.6-202C239.3,11.5,266.9,0,296.3,0h127.9c31,0,56.2,25.2,56.2,56.2v127.5c0,29.4-11.5,57-32.2,77.8L246,463.5
		C235.4,474.2,221.3,480,206.3,480z M296.3,37.5c-19.4,0-37.6,7.6-51.3,21.3l-201.6,202c-7.3,7.3-7.3,19.2,0,26.5L193,437
		c3.5,3.5,8.2,5.5,13.3,5.5h0c5,0,9.7-1.9,13.2-5.5l202.2-202c13.7-13.7,21.3-31.9,21.3-51.3V56.2c0-10.3-8.4-18.8-18.8-18.8H296.3z
		 M344.5,190.3c-31,0-56.2-25.2-56.2-56.2s25.2-56.2,56.2-56.2s56.2,25.2,56.2,56.2S375.5,190.3,344.5,190.3z M344.5,115.3
		c-10.3,0-18.8,8.4-18.8,18.8s8.4,18.8,18.8,18.8c10.3,0,18.8-8.4,18.8-18.8S354.9,115.3,344.5,115.3z"/>
</g>
</svg>
