<svg id="レイヤー_1" data-name="レイヤー 1" xmlns="http://www.w3.org/2000/svg" viewBox="0 0 448 448"><g id="b718c1be-50f4-4ea4-96fc-c3ff27cc1ad8"><path d="M368,64H16A16,16,0,0,0,0,80V432a16,16,0,0,0,16,16H368a16,16,0,0,0,16-16V80A16,16,0,0,0,368,64ZM352,416H32V96H352Zm80-32a16,16,0,0,1-16-16V32H80A16,16,0,0,1,80,0H432a16,16,0,0,1,16,16V368A16,16,0,0,1,432,384ZM304,256a16,16,0,0,1-16,16H208v64a16,16,0,0,1-32,0V272H96a16,16,0,0,1,0-32h80V176a16,16,0,0,1,32,0v64h80A16,16,0,0,1,304,256Z" style="fill:#a27c47"/></g></svg>