<svg xmlns="http://www.w3.org/2000/svg" viewBox="0 0 102.96 102.96"><g id="レイヤー_1" data-name="レイヤー 1"><rect width="102.96" height="102.96" style="fill:none"/></g><g id="レイヤー_4" data-name="レイヤー 4"><path d="M91.93,34.92a30.35,30.35,0,0,0-1.92-10A21.17,21.17,0,0,0,77.92,12.8a30.35,30.35,0,0,0-10-1.92c-4.41-.2-5.82-.25-17-.25s-12.63,0-17,.25a30.35,30.35,0,0,0-10,1.92,20.27,20.27,0,0,0-7.32,4.77,20.14,20.14,0,0,0-4.77,7.32,30.35,30.35,0,0,0-1.92,10c-.2,4.41-.25,5.82-.25,17S9.57,64.6,9.77,69a30.4,30.4,0,0,0,1.92,10A21.17,21.17,0,0,0,23.78,91.13a30.35,30.35,0,0,0,10,1.92c4.41.2,5.82.25,17,.25s12.63,0,17-.25a30.35,30.35,0,0,0,10-1.92A21.14,21.14,0,0,0,90,79a30.4,30.4,0,0,0,1.92-10c.2-4.41.25-5.82.25-17S92.13,39.33,91.93,34.92ZM84.49,68.67a22.62,22.62,0,0,1-1.42,7.67,13.69,13.69,0,0,1-7.84,7.85,23,23,0,0,1-7.68,1.42c-4.36.2-5.66.24-16.7.24s-12.34,0-16.7-.24a23,23,0,0,1-7.68-1.42,12.84,12.84,0,0,1-4.75-3.1,12.73,12.73,0,0,1-3.09-4.75,22.62,22.62,0,0,1-1.42-7.67C17,64.31,17,63,17,52s0-12.35.24-16.71a22.67,22.67,0,0,1,1.42-7.67,12.73,12.73,0,0,1,3.09-4.75,12.84,12.84,0,0,1,4.75-3.1,23.27,23.27,0,0,1,7.68-1.42c4.36-.2,5.66-.24,16.7-.24h0c11,0,12.34,0,16.7.24a23.27,23.27,0,0,1,7.68,1.42,13.73,13.73,0,0,1,7.84,7.85,22.67,22.67,0,0,1,1.42,7.67c.2,4.36.24,5.67.24,16.71S84.69,64.31,84.49,68.67Z" style="fill:#fff"/><path d="M50.85,30.74A21.23,21.23,0,1,0,72.07,52,21.22,21.22,0,0,0,50.85,30.74Zm0,35A13.78,13.78,0,1,1,64.63,52,13.78,13.78,0,0,1,50.85,65.74Z" style="fill:#fff"/><path d="M77.87,29.9a5,5,0,1,1-5-5A5,5,0,0,1,77.87,29.9Z" style="fill:#fff"/></g></svg>