<svg id="Layer_1" height="512" viewBox="0 0 512 512" width="512" xmlns="http://www.w3.org/2000/svg" xmlns:xlink="http://www.w3.org/1999/xlink" data-name="Layer 1"><linearGradient id="linear-gradient" gradientUnits="userSpaceOnUse" x1="79.223" x2="432.777" y1="432.777" y2="79.223"><stop offset="0" stop-color="#d6b43d"/><stop offset=".051" stop-color="#dba93f"/><stop offset=".143" stop-color="#e88a45"/><stop offset=".164" stop-color="#eb8246"/><stop offset=".211" stop-color="#e7774d"/><stop offset=".294" stop-color="#dd5860"/><stop offset=".31" stop-color="#db5164"/><stop offset=".464" stop-color="#d2466c"/><stop offset=".567" stop-color="#c93b73"/><stop offset=".607" stop-color="#cb3179"/><stop offset=".733" stop-color="#a23394"/><stop offset=".856" stop-color="#7f35ab"/><stop offset=".91" stop-color="#7d35ab"/><stop offset=".94" stop-color="#7537aa"/><stop offset=".964" stop-color="#673aa9"/><stop offset=".985" stop-color="#533da8"/><stop offset="1" stop-color="#4041a6"/></linearGradient><linearGradient id="linear-gradient-2" gradientUnits="userSpaceOnUse" x1="127.429" x2="432.776" y1="127.429" y2="432.777"><stop offset="0" stop-color="#1d1d1b"/><stop offset=".369" stop-color="#1d1d1b" stop-opacity=".856"/><stop offset=".75" stop-color="#1d1d1b" stop-opacity=".429"/><stop offset="1" stop-color="#1d1d1b" stop-opacity="0"/></linearGradient><circle cx="256" cy="256" fill="url(#linear-gradient)" r="250"/><path d="m505.888 248.748-120.631-120.632c-17.489-17.3-41.038-23.746-65.035-24.933h-128.444c-24 1.187-47.546 7.63-65.035 24.933-17.322 17.138-24 40.576-25.2 64.344v127.08c1.2 23.768 7.879 47.206 25.2 64.343l122.005 122.005c2.409.068 4.826.112 7.252.112 138.071 0 250-111.929 250-250 0-2.427-.044-4.843-.112-7.252zm-312.488 131.114c-16.281-.447-34.738-4.5-46.338-16.89-12.054-12.88-16.542-28.441-17.071-45.846 0 0-.812-91.7 0-122.253.462-17.406 5.017-32.966 17.071-45.845 11.6-12.394 30.057-16.443 46.338-16.89 31.286-.859 93.906-.859 125.192 0 16.281.447 34.738 4.5 46.338 16.89 12.054 12.879 16.609 28.439 17.071 45.845v1.541l-32.771-32.775a16.275 16.275 0 1 0 -23.017 23.016l55.792 55.792v24.476l-68.464-68.464a81.375 81.375 0 0 0 -115.081 115.081l66.953 66.954c-26.462.065-54.271-.146-72.013-.632z" fill="url(#linear-gradient-2)" opacity=".49"/><g fill="#fff"><path d="m410.458 192.46c-1.2-23.768-7.879-47.206-25.2-64.344-17.489-17.3-41.038-23.746-65.035-24.933h-128.445c-24 1.187-47.546 7.63-65.035 24.933-17.322 17.138-24 40.576-25.2 64.344v127.079c1.2 23.769 7.879 47.207 25.2 64.344 17.489 17.3 41.038 23.746 65.035 24.934h128.444c24-1.188 47.546-7.63 65.035-24.934 17.322-17.137 24-40.575 25.2-64.344zm-280.458 2.414c.462-17.407 5.017-32.967 17.071-45.846 11.6-12.394 30.057-16.443 46.338-16.89 31.286-.858 93.906-.858 125.192 0 16.281.447 34.738 4.5 46.338 16.89 12.054 12.879 16.609 28.439 17.071 45.846v122.252c-.462 17.407-5.017 32.967-17.071 45.846-11.6 12.394-30.057 16.443-46.338 16.89-31.286.858-93.906.858-125.192 0-16.281-.447-34.738-4.5-46.338-16.89-12.054-12.879-16.542-28.441-17.071-45.846 0 0-.817-91.7 0-122.252z"/><circle cx="337.722" cy="175.147" r="16.275"/><path d="m256 174.624a81.375 81.375 0 1 0 81.375 81.376 81.375 81.375 0 0 0 -81.375-81.376zm0 133.876a52.5 52.5 0 1 1 52.5-52.5 52.5 52.5 0 0 1 -52.5 52.5z"/></g></svg>