<svg xmlns="http://www.w3.org/2000/svg" viewBox="0 0 150.23 162"><defs><style>.cls-1{fill:#a08867;}</style></defs><g id="レイヤー_2" data-name="レイヤー 2"><g id="レイヤー_1-2" data-name="レイヤー 1"><path class="cls-1" d="M27.31,115.63H38.6v34.73h100V47.86H102.85V11.72H38.78V46.35H27.31V18.18c0-2.65,0-5.3,0-7.95C27.36,3.15,30.42.05,37.44.05Q63.75,0,90.07,0C97,0,104-.1,110.89.14a8.41,8.41,0,0,1,5.22,2.07Q132.25,17.93,148,34a8.26,8.26,0,0,1,2.13,5.2q.18,56.42.08,112.83c0,6.8-3.13,9.93-9.95,9.93h-103c-6.8,0-9.95-3.14-10-10C27.29,140.05,27.31,128.08,27.31,115.63ZM132.4,36l-18-18V36Z"/><path class="cls-1" d="M46.38,106.94q-20.62,0-41.24,0c-4.77,0-5.12-.37-5.13-5.23Q0,80.88,0,60.08c0-4.55.43-5,5-5q41.43,0,82.86,0c4.73,0,5.18.46,5.18,5.24q0,20.8,0,41.62c0,4.47-.53,5-5.06,5Q67.19,107,46.38,106.94Zm-12-11.74c4.48,0,8.63.33,12.72-.07,7.13-.72,11.37-5.88,11.6-13.47C59,73.81,55,68.12,47.93,67.13,43.54,66.52,39,67,34.39,67ZM17.08,85.47c2.45-.2,4.21-.25,5.94-.5,4.41-.64,7.07-3.64,7.38-8.22s-1.95-8.61-6-9.32c-4.35-.77-8.86-.58-13.34-.82V94.84h6ZM63.26,66.84V94.75l2.3.36c3.45.56,5.23-.51,4.71-4.38a53.17,53.17,0,0,1,0-6.6h10V78.82H70.59V72H81.68V66.84Z"/><path class="cls-1" d="M41.08,88.79V73c3.63-.46,6.93-.46,9.23,2.75,1.73,2.42,1.66,8,0,10.44S45.79,89.62,41.08,88.79Z"/><path class="cls-1" d="M16.85,81.09V72.82c2.36.69,4.5,1,6.21,2,.61.35.71,3.21.12,3.64C21.54,79.61,19.42,80.09,16.85,81.09Z"/></g></g></svg>