<svg xmlns="http://www.w3.org/2000/svg" viewBox="0 0 102.96 102.96"><g id="レイヤー_1" data-name="レイヤー 1"><rect width="102.96" height="102.96" style="fill:none"/></g><g id="レイヤー_3" data-name="レイヤー 3"><path d="M91,27a33.58,33.58,0,0,1-9.34,2.56,16.11,16.11,0,0,0,7.13-9,32.14,32.14,0,0,1-10.28,3.92,16.21,16.21,0,0,0-28,11.09,17.14,17.14,0,0,0,.37,3.7,45.88,45.88,0,0,1-33.41-17,16.22,16.22,0,0,0,5,21.67,16.06,16.06,0,0,1-7.33-2v.18a16.29,16.29,0,0,0,13,15.93,16.23,16.23,0,0,1-4.25.53,14.86,14.86,0,0,1-3.07-.27A16.36,16.36,0,0,0,35.92,69.64a32.54,32.54,0,0,1-20.1,6.92,29.1,29.1,0,0,1-3.88-.23,45.56,45.56,0,0,0,24.87,7.28C66.65,83.61,83,58.9,83,37.47c0-.71,0-1.41-.06-2.09A32.35,32.35,0,0,0,91,27Z" style="fill:#fff"/></g></svg>