<svg id="レイヤー_1" data-name="レイヤー 1" xmlns="http://www.w3.org/2000/svg" viewBox="0 0 35.81 35.81"><path d="M17.9,5.84a.78.78,0,0,0,.78-.78V4.67a.78.78,0,1,0-1.55,0v.39A.78.78,0,0,0,17.9,5.84Z" style="fill:#a08867"/><path d="M17.9,30a.78.78,0,0,0-.77.78v.39a.78.78,0,1,0,1.55,0v-.39A.78.78,0,0,0,17.9,30Z" style="fill:#a08867"/><path d="M5.06,17.13H4.67a.78.78,0,1,0,0,1.55h.39a.78.78,0,1,0,0-1.55Z" style="fill:#a08867"/><path d="M31.14,17.13h-.39a.78.78,0,1,0,0,1.55h.39a.78.78,0,1,0,0-1.55Z" style="fill:#a08867"/><path d="M9.11,8A.77.77,0,0,0,8,9.11l.27.27A.77.77,0,1,0,9.38,8.29Z" style="fill:#a08867"/><path d="M8.29,26.43,8,26.7a.76.76,0,0,0,0,1.09.73.73,0,0,0,.54.23.76.76,0,0,0,.55-.23l.27-.27a.77.77,0,0,0-1.09-1.09Z" style="fill:#a08867"/><path d="M26.43,26.43a.76.76,0,0,0,0,1.09l.27.27a.77.77,0,0,0,1.09-1.09l-.27-.27A.76.76,0,0,0,26.43,26.43Z" style="fill:#a08867"/><path d="M26.7,8l-.27.27a.76.76,0,0,0,0,1.09.73.73,0,0,0,.54.23.76.76,0,0,0,.55-.23l.27-.27A.77.77,0,0,0,26.7,8Z" style="fill:#a08867"/><path d="M17.9,0A17.91,17.91,0,1,0,35.81,17.9,17.91,17.91,0,0,0,17.9,0Zm0,34.25A16.35,16.35,0,1,1,34.25,17.9,16.34,16.34,0,0,1,17.9,34.25Z" style="fill:#a08867"/><path d="M17.68,18.85h0a.74.74,0,0,1-.52-.22l-5-5.15a.73.73,0,0,1,1-1l4.5,4.63,6.76-6.76a.73.73,0,0,1,1,1l-7.28,7.27A.71.71,0,0,1,17.68,18.85Z" style="fill:#a08867"/></svg>