<svg xmlns="http://www.w3.org/2000/svg" viewBox="0 0 214.61 179.82"><defs><style>.cls-1{fill:#a08867;}</style></defs><g id="レイヤー_2" data-name="レイヤー 2"><g id="レイヤー_1-2" data-name="レイヤー 1"><path class="cls-1" d="M182.34,149.52c0,4.19,0,8.33,0,12.47,0,1.94-1.22,2.87-3.12,2.88-2.48,0-4.95,0-7.47,0-2.64,9.46-8.42,15.21-18.46,14.88-9.33-.3-14.61-6-17-14.78H78.06c-2.57,9.22-8.23,14.81-18.17,14.85-8.2,0-13.5-4.66-17.32-14.94H31.33c-3.56,0-3.79-.23-3.79-3.9,0-3,0-6-.05-8.95a2.39,2.39,0,0,0-.89-1.72,9.31,9.31,0,0,1-4.47-6.41,1.93,1.93,0,0,0-1.36-1.2,52.41,52.41,0,0,0-5.88-.09c-2.45.08-3.8-.82-3.89-2.77-.12-2.33,1.11-3.65,3.55-3.7s4.8,0,7.39,0v-3.68H11c-2.62,0-5.24,0-7.85,0a2.73,2.73,0,0,1-3-2.51,3,3,0,0,1,2.19-3.55,7.83,7.83,0,0,1,2.38-.23c5.76,0,11.52,0,17.28,0h2.48v-4.89l-2.27-.57v-2.12q0-14.86,0-29.74c0-6.2,3.09-9.26,9.29-9.26h82.9c6.68,0,9.58,2.91,9.6,9.58,0,3.2,0,6.39,0,9.85h2.83q13.23,0,26.47,0c4,0,4.78.64,5.74,4.51,1.73,7,3.46,14,5.1,21a2.78,2.78,0,0,0,2.53,2.47c4.08.75,8.13,1.68,12.19,2.57,2.64.58,3.56,1.72,3.56,4.41,0,2.18-.15,4.37-.09,6.55,0,1.33-.47,1.87-1.74,1.88a17.62,17.62,0,0,0-2.18.16,3.51,3.51,0,0,0-3.18,3.77c.13,1.79,1.39,2.84,3.45,2.87,1,0,2,0,3.06,0A3.11,3.11,0,0,1,182.34,149.52ZM73.28,86.09c-13.93,0-27.85,0-41.78,0-2,0-2.71.64-2.7,2.64,0,17.34,0,34.68,0,52,0,3.71.23,3.85,4,3.83,12.37-.05,24.73-.12,37.1-.14q22.2,0,44.39,0c2.94,0,3.05-.12,3.05-3.11q0-26.13,0-52.27c0-2.82-.11-2.92-3-2.93Zm69.06,39.7h0c3.86,0,7.72,0,11.58,0,2.74,0,3.07-.39,2.55-3.1-.95-4.93-2-9.85-2.89-14.79-.3-1.64-1.12-2.12-2.69-2.11q-10.27.09-20.54,0c-1.83,0-2.44.7-2.42,2.46.06,5,.08,10,0,15.08,0,2,.8,2.52,2.62,2.48C134.47,125.74,138.41,125.79,142.34,125.79ZM71,162.36A10.63,10.63,0,1,0,60.05,172.8,10.63,10.63,0,0,0,71,162.36Zm72.38-.32a10.65,10.65,0,1,0,10.79-10.57A10.65,10.65,0,0,0,143.34,162ZM134,132v0c-.86,0-1.74-.06-2.6,0-1.5.15-2.61,1.09-2.34,2.54a3.69,3.69,0,0,0,2.06,2.54,13,13,0,0,0,5.56,0,3.29,3.29,0,0,0,1.89-2.6c-.05-.85-1.29-1.82-2.22-2.39C135.72,131.71,134.75,132,134,132Z"/><path class="cls-1" d="M73.11,67,62.66,53.86c.7-.55,1.23-1,1.81-1.42C72.22,46.89,80,41.33,87.75,35.84a3.67,3.67,0,0,0,1.76-3.42c-.08-7.36,0-14.72,0-22.29h23.21V18c1.54-1.05,2.67-1.79,3.77-2.58C123.34,10.49,130.24,5.6,137.1.65a2.21,2.21,0,0,1,3.06-.07q36.59,26.09,73.22,52.09c.35.25.66.55,1.23,1L204.22,67l-9-6.27v53.37H201v6.37a14.77,14.77,0,0,1-1.71.17c-8.67,0-17.35,0-26,0-1.39,0-2.16-.29-2.36-1.81s-.68-2.95-1.1-4.71h18.65c.06-1,.13-1.66.13-2.37,0-17.86,0-35.72,0-53.58a3.84,3.84,0,0,0-1.84-3.59q-23-16.27-46-32.7c-1.64-1.18-2.68-1.17-4.32,0-11.29,8.14-22.66,16.17-34,24.23-4.85,3.45-9.65,7-14.58,10.31-1.29.87-1.36,1.78-1.33,3.1.08,3.9,0,7.8,0,11.86H80.48V62Z"/><path class="cls-1" d="M147.51,84.29V59.71h24.71V84.29Z"/><path class="cls-1" d="M17.29,112.46v6.37c-3.72,0-7.34.13-10.94-.06a3.16,3.16,0,0,1,.12-6.27C10,112.37,13.57,112.46,17.29,112.46Z"/></g></g></svg>