<svg id="レイヤー_1" data-name="レイヤー 1" xmlns="http://www.w3.org/2000/svg" viewBox="0 0 41.13 57.51"><g id="Layer_2" data-name="Layer 2"><path d="M38.1,2.79H31v-2A.79.79,0,0,0,30.23,0H10.9a.79.79,0,0,0-.79.79v2H3a3,3,0,0,0-3,3V54.48a3,3,0,0,0,3,3H38.1a3,3,0,0,0,3-3V5.83A3,3,0,0,0,38.1,2.79Zm-3,6.07V51.44h-29V8.86ZM11.69,1.57H29.44V7.29H11.69ZM39.56,54.48a1.46,1.46,0,0,1-1.46,1.46H3a1.46,1.46,0,0,1-1.46-1.46V5.83A1.46,1.46,0,0,1,3,4.37h7.08V7.29H5.28a.78.78,0,0,0-.78.78h0V52.23a.78.78,0,0,0,.78.79H35.85a.78.78,0,0,0,.78-.79h0V8.08a.78.78,0,0,0-.78-.79H31V4.37H38.1a1.46,1.46,0,0,1,1.46,1.46Z" style="fill:#9f8767"/><path d="M15.2,5.22H25.93a.79.79,0,1,0,0-1.57H15.2a.79.79,0,1,0,0,1.57Z" style="fill:#9f8767"/><path d="M10.9,28.52h4a.8.8,0,0,0,.79-.79h0v-4a.8.8,0,0,0-.79-.79h-4a.79.79,0,0,0-.79.79h0v4a.8.8,0,0,0,.79.79Zm.79-4H14.1v2.41H11.69Z" style="fill:#9f8767"/><path d="M10.9,37.35h4a.79.79,0,0,0,.79-.78h0v-4a.8.8,0,0,0-.79-.79h-4a.79.79,0,0,0-.79.79h0v4A.79.79,0,0,0,10.9,37.35Zm.79-4H14.1v2.42H11.69Z" style="fill:#9f8767"/><path d="M10.9,46.19h4a.79.79,0,0,0,.79-.78h0v-4a.79.79,0,0,0-.79-.78h-4a.79.79,0,0,0-.79.78h0v4a.79.79,0,0,0,.79.79Zm.79-4H14.1v2.42H11.69Z" style="fill:#9f8767"/><path d="M19.67,17.68H30.23a.79.79,0,1,0,0-1.57H19.67a.79.79,0,1,0,0,1.57Z" style="fill:#9f8767"/><path d="M19.67,26.52H30.23a.79.79,0,1,0,0-1.57H19.67a.79.79,0,1,0,0,1.57Z" style="fill:#9f8767"/><path d="M19.67,35.36H30.23a.79.79,0,1,0,0-1.57H19.67a.79.79,0,1,0,0,1.57Z" style="fill:#9f8767"/><path d="M19.67,44.2H30.23a.79.79,0,0,0,0-1.58H19.67a.79.79,0,0,0,0,1.58Z" style="fill:#9f8767"/><path d="M11.89,19.45a.79.79,0,0,0,1.12,0,.69.69,0,0,0,.11-.13l2.44-4a.79.79,0,0,0-1.33-.84v0l-1.93,3.14-.84-.84a.79.79,0,0,0-1.11,1.11Z" style="fill:#9f8767"/></g></svg>