<svg xmlns="http://www.w3.org/2000/svg" viewBox="0 0 226.64 188.33"><defs><style>.cls-1,.cls-2,.cls-4{fill:none;}.cls-1,.cls-2,.cls-3,.cls-4{stroke:#a08867;}.cls-1,.cls-3,.cls-4{stroke-miterlimit:10;}.cls-1,.cls-2{stroke-width:5px;}.cls-2{stroke-linecap:round;stroke-linejoin:round;}.cls-3{fill:#a08867;}.cls-4{stroke-width:3px;}</style></defs><g id="レイヤー_2" data-name="レイヤー 2"><g id="レイヤー_1-2" data-name="レイヤー 1"><polygon class="cls-1" points="16.24 85.45 3.29 132.08 131.53 132.08 147.07 85.45 16.24 85.45"/><path class="cls-2" d="M18,111.5" transform="translate(-9.02)"/><path class="cls-2" d="M0,121.86" transform="translate(-9.02)"/><polygon class="cls-2" points="201.47 55.65 147.07 85.45 172.33 121.86 224.14 88.76 205.36 61.48 201.47 55.65"/><polyline class="cls-1" points="14.3 132.08 14.3 185.83 143.83 185.83 147.07 85.45"/><polyline class="cls-1" points="143.83 185.83 203.42 151.51 203.42 102"/><path class="cls-3" d="M112.39,52.43a8.52,8.52,0,0,1,3.82,7.49c0,8.57,0,17.16,0,25.73H64.86c0-2,0-3.92,0-5.89,0-6.6,0-13.44,0-20.16a8,8,0,0,1,3.52-7c.66-.49,1.34-1,2-1.44a68.92,68.92,0,0,0,6.09-4.64A7.52,7.52,0,0,0,78.78,42q.36-3.6.69-7l.27,0,.19.61C82.76,44.5,77.19,49,71.37,52.28c-5.6,3.13-5.55,8-4.76,12.3l.08.38h47.57v-.45c0-.44,0-.86,0-1.26a14.76,14.76,0,0,1,0-2.23c.42-3.53-.92-6.19-4.09-8.11a51.94,51.94,0,0,1-4.26-3c-.9-.68-1.81-1.38-2.75-2A6.59,6.59,0,0,1,100.24,42c0-1.52,0-3.05,0-4.55V35.05l1.2-.11c.22,2.51.49,5.16.79,8a6.71,6.71,0,0,0,2.47,3.85c2,1.65,4.13,3.17,6.21,4.64Z" transform="translate(-9.02)"/><path class="cls-3" d="M101.44,34.94l-1.2.11H79.74l-.27,0c.53-5.84,1-11.26,1.22-16.42.14-2.67.06-5.4,0-8-.06-1.59-.12-3.22-.12-4.83,0-3.3.91-4.2,4.24-4.23h.29c3.76,0,7.65-.05,11.47,0,3,0,3.91,1,3.92,4,0,1.87,0,3.78-.08,5.62-.06,3.19-.13,6.49,0,9.74C100.61,25.24,101,29.81,101.44,34.94ZM87.18,8.81l.59-6.67-.47,0c-1.68-.09-2.83.28-3.52,1.12-.83,1.05-.91,2.71-.23,5.25l.08.33Zm.19,6.65V9.37l-4.08.19v5.9ZM82.44,33.09c2.76-.66,5.32-10.46,4.74-16l0-.4H83.61l-1.8,16.5Z" transform="translate(-9.02)"/><path class="cls-3" d="M152.92,62.54a5.92,5.92,0,0,1,2.66,5.21c0,6,0,11.94,0,17.9H119.85c0-1.37,0-2.72,0-4.09,0-4.6,0-9.36,0-14a5.52,5.52,0,0,1,2.45-4.89l1.39-1a48.4,48.4,0,0,0,4.24-3.23,5.23,5.23,0,0,0,1.63-3.12q.26-2.49.48-4.86l.19,0,.13.42c2,6.15-1.91,9.3-6,11.56-3.9,2.18-3.86,5.56-3.31,8.56l.05.26h33.1v-.31c0-.31,0-.6,0-.88a9.67,9.67,0,0,1,0-1.54,5.39,5.39,0,0,0-2.85-5.65,34.63,34.63,0,0,1-3-2.11c-.62-.47-1.26-1-1.9-1.41a4.6,4.6,0,0,1-2.05-4.05c0-1,0-2.12,0-3.16V50.45l.84-.08c.15,1.75.34,3.59.55,5.54a4.63,4.63,0,0,0,1.71,2.68c1.38,1.15,2.87,2.21,4.32,3.23Z" transform="translate(-9.02)"/><path class="cls-3" d="M145.31,50.37l-.84.08H130.21l-.19,0c.37-4.06.66-7.84.85-11.42.1-1.86,0-3.76,0-5.59,0-1.11-.08-2.24-.08-3.36,0-2.3.63-2.93,2.94-2.95h.2c2.62,0,5.33,0,8,0,2.06,0,2.72.71,2.73,2.79,0,1.3,0,2.63-.06,3.91,0,2.22-.09,4.52,0,6.77C144.73,43.62,145,46.8,145.31,50.37Zm-9.93-18.18.41-4.65-.33,0a2.8,2.8,0,0,0-2.45.78c-.58.73-.63,1.89-.16,3.66l.06.23Zm.13,4.63V32.58l-2.84.13v4.11Zm-3.42,12.26c1.91-.46,3.69-7.28,3.29-11.1l0-.28h-2.46l-1.24,11.48Z" transform="translate(-9.02)"/><path class="cls-4" d="M79.47,35q-.33,3.39-.69,7a7.52,7.52,0,0,1-2.34,4.48,68.92,68.92,0,0,1-6.09,4.64c-.66.47-1.34,1-2,1.44a8,8,0,0,0-3.52,7c.08,6.72.06,13.56,0,20.16,0,2,0,3.93,0,5.89h51.33c0-8.57,0-17.16,0-25.73a8.52,8.52,0,0,0-3.82-7.49l-1.48-1c-2.08-1.47-4.22-3-6.21-4.64a6.71,6.71,0,0,1-2.47-3.85c-.3-2.81-.57-5.46-.79-8-.48-5.13-.83-9.7-1-14-.16-3.25-.09-6.55,0-9.74,0-1.84.08-3.75.08-5.62,0-3-1-4-3.92-4-3.82-.08-7.71-.05-11.47,0h-.29c-3.33,0-4.25.93-4.24,4.23,0,1.61.06,3.24.12,4.83.1,2.63.18,5.36,0,8C80.42,23.77,80,29.19,79.47,35Z" transform="translate(-9.02)"/><path class="cls-4" d="M83.78,3.23c.69-.84,1.84-1.21,3.52-1.12l.47,0-.59,6.67H83.63l-.08-.33C82.87,5.94,83,4.28,83.78,3.23Z" transform="translate(-9.02)"/><polygon class="cls-4" points="78.35 9.37 78.35 15.46 74.27 15.46 74.27 9.56 78.35 9.37"/><path class="cls-4" d="M83.61,16.73h3.53l0,.4c.58,5.5-2,15.3-4.74,16l-.63.14Z" transform="translate(-9.02)"/><path class="cls-4" d="M100.24,35.05v2.43c0,1.5,0,3,0,4.55a6.59,6.59,0,0,0,2.94,5.82c.94.65,1.85,1.35,2.75,2a51.94,51.94,0,0,0,4.26,3c3.17,1.92,4.51,4.58,4.09,8.11a14.76,14.76,0,0,0,0,2.23c0,.4,0,.82,0,1.26V65H66.69l-.08-.38c-.79-4.32-.84-9.17,4.76-12.3C77.19,49,82.76,44.5,79.93,35.66l-.19-.61Z" transform="translate(-9.02)"/><line class="cls-2" x1="201.47" y1="55.65" x2="137.84" y2="55.65"/><line class="cls-2" x1="119.52" y1="55.29" x2="107.56" y2="55.29"/><polyline class="cls-2" points="55.82 55.3 50.74 58.3 16.24 85.45"/></g></g></svg>