<svg id="レイヤー_1" data-name="レイヤー 1" xmlns="http://www.w3.org/2000/svg" viewBox="0 0 41.4 37.96"><path d="M22.76,21.92V15.76a2.06,2.06,0,0,0-4.11,0v6.16a2.06,2.06,0,0,0,4.11,0Z" style="fill:#fff;fill-rule:evenodd"/><circle cx="20.7" cy="9.6" r="2.05" style="fill:#fff"/><path d="M20.7,38a.76.76,0,0,1-.65-.38l-3.5-6.07H9.25A9.27,9.27,0,0,1,0,22.25v-13A9.26,9.26,0,0,1,9.25,0h22.9A9.26,9.26,0,0,1,41.4,9.25v13a9.27,9.27,0,0,1-9.25,9.26H24.86l-3.51,6.07A.75.75,0,0,1,20.7,38ZM9.25,1.5A7.76,7.76,0,0,0,1.5,9.25v13A7.77,7.77,0,0,0,9.25,30H17a.76.76,0,0,1,.65.37l3.07,5.33,3.08-5.33a.74.74,0,0,1,.65-.37h7.72a7.76,7.76,0,0,0,7.75-7.76v-13A7.76,7.76,0,0,0,32.15,1.5Z" style="fill:#fff"/></svg>