<svg xmlns="http://www.w3.org/2000/svg" viewBox="0 0 184.03 184.03"><defs><style>.cls-1{fill:#a08867;}.cls-2{fill:#fff;}</style></defs><g id="レイヤー_2" data-name="レイヤー 2"><g id="レイヤー_1-2" data-name="レイヤー 1"><rect class="cls-1" width="184.03" height="184.03" rx="48.47"/><path class="cls-2" d="M153.36,83.35c0-27.46-27.53-49.8-61.36-49.8S30.64,55.89,30.64,83.35c0,24.61,21.83,45.22,51.32,49.12,2,.43,4.71,1.32,5.4,3,.62,1.55.41,4,.2,5.54,0,0-.72,4.33-.88,5.26-.26,1.55-1.23,6.06,5.32,3.31S127.33,128.8,140.21,114h0C149.09,104.23,153.36,94.33,153.36,83.35Z"/><path class="cls-1" d="M132.94,99.2H115.71A1.17,1.17,0,0,1,114.53,98v0h0V71.28h0v0a1.17,1.17,0,0,1,1.18-1.17h17.23a1.17,1.17,0,0,1,1.17,1.17V75.6a1.17,1.17,0,0,1-1.17,1.17H121.23v4.52h11.71a1.17,1.17,0,0,1,1.17,1.17v4.36A1.17,1.17,0,0,1,132.94,88H121.23v4.52h11.71a1.17,1.17,0,0,1,1.17,1.17V98A1.17,1.17,0,0,1,132.94,99.2Z"/><path class="cls-1" d="M69.18,99.2A1.17,1.17,0,0,0,70.35,98V93.68a1.17,1.17,0,0,0-1.17-1.17H57.46V71.25a1.17,1.17,0,0,0-1.17-1.17H51.94a1.17,1.17,0,0,0-1.17,1.17V98h0v0a1.17,1.17,0,0,0,1.17,1.17H69.18Z"/><rect class="cls-1" x="74.03" y="70.08" width="6.69" height="29.12" rx="1.17"/><path class="cls-1" d="M109.18,70.08h-4.35a1.17,1.17,0,0,0-1.17,1.17V87.16L91.4,70.61a.94.94,0,0,0-.09-.12h0l-.07-.07,0,0-.06-.06,0,0-.07,0,0,0-.07,0,0,0-.07,0h0l-.07,0h0l-.07,0H86.08a1.17,1.17,0,0,0-1.17,1.17V98a1.17,1.17,0,0,0,1.17,1.17h4.35A1.17,1.17,0,0,0,91.61,98V82.13L103.87,98.7a1.42,1.42,0,0,0,.31.29h0l.07,0,0,0,0,0,.06,0h0l.08,0h0a1.45,1.45,0,0,0,.3,0h4.33A1.17,1.17,0,0,0,110.35,98V71.25A1.17,1.17,0,0,0,109.18,70.08Z"/></g></g></svg>