<svg xmlns="http://www.w3.org/2000/svg" viewBox="0 0 230.15 203.42"><defs><style>.cls-1{fill:none;stroke-width:6px;}.cls-1,.cls-2{stroke:#a08867;stroke-miterlimit:10;}.cls-2{fill:#a08867;stroke-width:2px;}</style></defs><g id="レイヤー_2" data-name="レイヤー 2"><g id="レイヤー_1-2" data-name="レイヤー 1"><path class="cls-1" d="M204.42,105.42h22.73v9.89H194.68c-2,28.45-4,56.66-6,85.07h-16V117.51h-4.78v82.91H151.79c-2-28.22-4-56.43-6-84.85H3V105.51H145.07c-.68-9.79-1.33-19.18-2-28.57l-.54-.23c-.47.72-1,1.43-1.41,2.18-3.79,6.53-7.63,13-11.31,19.64a3.56,3.56,0,0,1-3.7,2.09c-4.14-.12-8.29,0-12.89,0,.89-2,1.58-3.5,2.3-5q12.25-26.31,24.52-52.62a5.2,5.2,0,0,1,3.85-3.4,117.67,117.67,0,0,1,43.77-1.59c12.4,1.94,19.75,11.75,19,24.31-.85,13.7-1.49,27.41-2.22,41.11C204.39,104,204.42,104.55,204.42,105.42Z"/><path class="cls-1" d="M13.83,100.59c.89-5.11,1.68-9.82,2.52-14.52,1.41-8,2.77-16,4.3-23.95,1.4-7.28,5.78-12.08,13-13.9a62.31,62.31,0,0,1,35.55,1.27,6.9,6.9,0,0,1,3.38,2.8c2.41,4,4.56,8.06,6.94,12.34,1.36-2.56,2.66-4.87,3.83-7.24a2.38,2.38,0,0,1,2.54-1.6c2.86.11,5.73,0,8.86,0-.27.76-.41,1.29-.64,1.78-2.91,6.29-5.85,12.56-8.74,18.86C84,79.29,82,81.17,78.78,81.29S73.37,79.78,71.84,77c-1.93-3.48-4-6.9-6.22-10.84C64.64,70.31,64,74,62.86,77.6a10.5,10.5,0,0,0,1.54,10c2.68,3.79,4.45,8.23,6.77,12.7H27.53c1.12-2.47,2.1-4.75,3.19-7a22.78,22.78,0,0,1,2.69-4.81c3.11-3.69,3.5-7.56,1.92-12a101.14,101.14,0,0,1-2.41-10c-.45,1.41-.79,2.33-1,3.27-2.55,9.6-5.13,19.21-7.62,28.84-.38,1.44-.94,2.07-2.53,2C19.24,100.48,16.73,100.59,13.83,100.59Z"/><path class="cls-1" d="M36.74,30.1A12.48,12.48,0,1,1,49.17,42.68,12.45,12.45,0,0,1,36.74,30.1Z"/><path class="cls-1" d="M184.94,17.75A14.7,14.7,0,1,1,170.23,3,14.66,14.66,0,0,1,184.94,17.75Z"/><path class="cls-2" d="M104.91,82.33c-.75-.54-1.52-1-2.22-1.65a1.86,1.86,0,0,1-.68-1c-.07-.74-.15-1.47-.22-2.2-.13-1.39-.24-2.79-.31-4.19s0-3,0-4.45c0-.93-.34-1.28-1.27-1.29-1.14,0-2.28,0-3.42,0s-1.36.32-1.36,1.36c0,1.24.12,2.49,0,3.73-.09,1.62-.21,3.25-.37,4.87,0,.64-.12,1.28-.18,1.92a2.11,2.11,0,0,1-.64,1.21c-.73.65-1.55,1.18-2.34,1.76a2.45,2.45,0,0,0-1.08,2.14c0,2.69,0,5.38,0,8.06v8.14a2.83,2.83,0,0,0,2.94,3q4.65,0,9.28,0a2.83,2.83,0,0,0,2.95-3c0-5.36,0-10.74,0-16.1A2.57,2.57,0,0,0,104.91,82.33Z"/></g></g></svg>