<svg xmlns="http://www.w3.org/2000/svg" viewBox="0 0 160.73 160.73"><defs><style>.cls-1,.cls-2{fill:#a08867;stroke:#a08867;stroke-miterlimit:10;}.cls-1{stroke-width:8px;}</style></defs><g id="レイヤー_2" data-name="レイヤー 2"><g id="レイヤー_1-2" data-name="レイヤー 1"><path class="cls-1" d="M111.83,156.71c-14.17-.3-27.24-4.64-39.42-11.54-28.65-16.23-50.16-39-62.85-69.68-3.73-9-6-18.45-5.5-28.26A50.35,50.35,0,0,1,6.32,34.45C9,26,14.55,19.84,23.19,16.9c3-1,6-2,9.12-2.87,3.32-.87,5.51.32,6.79,3.49C43.69,29,48.24,40.4,52.85,51.82a6.86,6.86,0,0,1-1.64,8c-3.13,3.15-6.3,6.27-9.42,9.44s-3.44,5.42-1.18,9.29a113.12,113.12,0,0,0,41.56,41.54c3.86,2.24,6.09,1.89,9.28-1.25,3-3,6.06-6,9-9.06a7.25,7.25,0,0,1,8.7-1.83c11.16,4.56,22.37,9,33.56,13.47,3.87,1.55,4.84,3.42,3.75,7.51-.68,2.56-1.46,5.11-2.3,7.63-4.06,12.1-13.23,17.68-25.2,19.63-1.4.23-2.82.36-4.24.47C113.79,156.77,112.81,156.71,111.83,156.71Z"/><path class="cls-2" d="M160.23,79.31c0,.62,0,1.24,0,1.86,0,3.36-1.86,5.54-4.73,5.63s-4.8-2.15-4.88-5.45c-.23-9-1.63-17.87-5.27-26.18-11.49-26.28-31.43-41.32-60-44.64-2.11-.25-4.25-.31-6.38-.42-2.92-.15-5-2.11-5-4.78S76.07.49,79.15.5A78.3,78.3,0,0,1,126.4,15.85C147.78,31.54,158.76,52.92,160.23,79.31Z"/><path class="cls-2" d="M141.13,78.45c0,1.48,0,2.28,0,3.08-.06,3.1-2.05,5.28-4.8,5.26s-4.82-2.17-4.84-5.28a48.66,48.66,0,0,0-4.76-21.39c-9.58-19.51-25.28-29.85-47-30.85-3.51-.16-5.79-2-5.76-4.93s2.3-4.76,5.85-4.75c30.43.11,56.86,23.46,60.78,53.71C140.8,75.23,141,77.17,141.13,78.45Z"/><path class="cls-2" d="M122,79.24c.43,4.71-1.22,7.43-4.59,7.55-3.21.12-5-2.27-5.12-7C111.73,63.44,97.35,49,81,48.44c-.8,0-1.61,0-2.4-.1a5.07,5.07,0,0,1-4.72-4.91,4.83,4.83,0,0,1,5-4.8,52.56,52.56,0,0,1,9.76,1.16A43.05,43.05,0,0,1,122,79.24Z"/></g></g></svg>