<svg id="レイヤー_1" data-name="レイヤー 1" xmlns="http://www.w3.org/2000/svg" xmlns:xlink="http://www.w3.org/1999/xlink" viewBox="0 0 324.42 332.76"><defs><linearGradient id="名称未設定グラデーション_51" x1="222.49" y1="-123.35" x2="222.49" y2="267.43" gradientUnits="userSpaceOnUse"><stop offset="0" stop-color="#fff"/><stop offset="1" stop-color="#a48b67"/></linearGradient><linearGradient id="名称未設定グラデーション_51-2" x1="60.23" y1="-123.35" x2="60.23" y2="267.43" xlink:href="#名称未設定グラデーション_51"/><linearGradient id="名称未設定グラデーション_51-3" x1="146.42" y1="-123.35" x2="146.42" y2="267.43" xlink:href="#名称未設定グラデーション_51"/><linearGradient id="名称未設定グラデーション_51-4" x1="77.55" y1="-123.35" x2="77.55" y2="267.43" xlink:href="#名称未設定グラデーション_51"/></defs><g style="opacity:0.1"><path d="M247.85,6.92c-.52-.33-1.13-.66-1.75-1-14.28,7.57-22.2,16.84-38.74,33.86-10,9.85-78.16,80.79-86.79,91.14,10.45,12.32,93.61,102.47,110,118.73,28.63,27.69,36.2,35.73,49.59,42.68,24.59-29.45,44.29-67.17,44.29-126C324.42,91.74,271.67,21.79,247.85,6.92Z" style="fill:url(#名称未設定グラデーション_51)"/><path d="M96.38,42.07c12.54-13.6,24.09-25.58,24.09-33.2C120.47,3.74,119,1,116.35,0H73.92A74.14,74.14,0,0,0,0,73.92v72.86C20.32,124.24,81.94,58.19,96.38,42.07Z" style="fill:url(#名称未設定グラデーション_51-2)"/><path d="M260.53,307.8c-20.91-2-31.36-11.34-48.63-25.62-18.17-15.27-102.24-111.34-121.32-136A6.33,6.33,0,0,1,89,142.43a8.93,8.93,0,0,1,1.58-4.11c6.36-7.88,77.7-84.25,92.7-101,11.36-12.31,21.81-23.15,21.81-30,0-3.76-.93-6-2.53-7.27H186.37a84.41,84.41,0,0,0-17.2,5.61c-18.08,8.7-26.61,19-46.19,39.18-11,10.89-86.35,89.27-95.89,100.7C38.64,159.1,130.51,258.7,148.58,276.66c37.16,35.92,42.17,41.91,63.26,51.16a88.43,88.43,0,0,0,15.71,4.87c6.21-.35,16.24-3,20.3-6.84,6-5.65,12-11.48,17.9-17.59C264,308.14,262.33,308,260.53,307.8Z" style="fill:url(#名称未設定グラデーション_51-3)"/><path d="M128,312.58C109.45,297,28.8,205.26,0,169.92v88.92a74.14,74.14,0,0,0,73.92,73.92H155.1C146.29,327.85,138.21,321,128,312.58Z" style="fill:url(#名称未設定グラデーション_51-4)"/></g></svg>