<?xml version="1.0" encoding="utf-8"?>
<!-- Generator: Adobe Illustrator 25.0.0, SVG Export Plug-In . SVG Version: 6.00 Build 0)  -->
<svg version="1.1" id="Capa_1" xmlns="http://www.w3.org/2000/svg" xmlns:xlink="http://www.w3.org/1999/xlink" x="0px" y="0px"
	 viewBox="0 0 476.3 367.3" style="enable-background:new 0 0 476.3 367.3;" xml:space="preserve">
<style type="text/css">
	.st0{fill:#2F2219;}
</style>
<path class="st0" d="M351.3,39.3C299-13.1,214.1-13.1,161.7,39.2c0,0-0.1,0.1-0.1,0.1c-52.3,52.3-52.3,137.4,0,189.8
	c52.3,52.4,137.2,52.4,189.6,0.1c0,0,0.1-0.1,0.1-0.1C403.6,176.8,403.6,91.6,351.3,39.3z M329.3,207c-40.2,40.2-105.4,40.2-145.7,0
	s-40.2-105.4,0-145.7c40.2-40.2,105.4-40.2,145.7,0c40.2,40.1,40.3,105.3,0.2,145.5C329.4,206.9,329.3,206.9,329.3,207z"/>
<path class="st0" d="M9.3,175.2c-5.2,0-9.3-4.2-9.3-9.3s4.2-9.3,9.3-9.3h64c5.2,0,9.3,4.2,9.3,9.3s-4.2,9.3-9.3,9.3H9.3z"/>
<path class="st0" d="M9.3,239.3c-5.2-0.2-9.2-4.5-9-9.6c0.2-4.9,4.1-8.9,9-9h88c5.2,0.2,9.2,4.5,9,9.6c-0.2,4.9-4.1,8.9-9,9H9.3z"/>
<path class="st0" d="M9.3,303.3c-5.2-0.2-9.2-4.5-9-9.6c0.2-4.9,4.1-8.9,9-9h151.9c5.2,0.2,9.2,4.5,9,9.6c-0.2,4.9-4.1,8.9-9,9H9.3z
	"/>
<path class="st0" d="M9.3,367.3c-5.2,0-9.3-4.2-9.3-9.3c0-5.2,4.2-9.3,9.3-9.3h327.8c5.2,0,9.3,4.2,9.3,9.3c0,5.2-4.2,9.3-9.3,9.3
	H9.3z"/>
<path class="st0" d="M471.4,347.8c-6.6,6.6-17.4,6.6-24,0L338.5,238.9c8.9-7,17-15.2,23.8-24.2l109,109.1
	C478,330.4,478,341.1,471.4,347.8z"/>
</svg>
