<svg xmlns="http://www.w3.org/2000/svg" xmlns:xlink="http://www.w3.org/1999/xlink" viewBox="0 0 301 59"><defs><style>.cls-1{fill:#a48b78;}.cls-2{font-size:17.41px;}.cls-2,.cls-3{fill:#fff;font-family:UDDigiKyokashoN-B, UD Digi Kyokasho N-B;}.cls-3{font-size:14px;}.cls-4{fill:url(#名称未設定グラデーション_59);}.cls-5{fill:url(#名称未設定グラデーション_59-2);}</style><linearGradient id="名称未設定グラデーション_59" x1="29.64" y1="59" x2="29.64" gradientUnits="userSpaceOnUse"><stop offset="0" stop-color="#a78a69"/><stop offset="0.17" stop-color="#a88d6d"/><stop offset="0.24" stop-color="#aa9171"/><stop offset="0.32" stop-color="#ae9677"/><stop offset="0.43" stop-color="#baa687"/><stop offset="0.44" stop-color="#bba788"/><stop offset="0.54" stop-color="#bfac90"/><stop offset="0.71" stop-color="#c8baa5"/><stop offset="0.73" stop-color="#cabca8"/><stop offset="1" stop-color="#ddd5c3"/></linearGradient><linearGradient id="名称未設定グラデーション_59-2" x1="36.05" y1="52.28" x2="36.05" y2="36.87" xlink:href="#名称未設定グラデーション_59"/></defs><g id="レイヤー_2" data-name="レイヤー 2"><g id="レイヤー_1-2" data-name="レイヤー 1"><path class="cls-1" d="M79.28,2.82a3.86,3.86,0,0,1,3.89,4A4,4,0,1,1,75.23,7,4,4,0,0,1,79.28,2.82ZM79,3.26c-1.34,0-2.56,1.13-2.56,3.37s1.22,3.88,2.92,3.88c1.45,0,2.55-1.08,2.55-3.4C82,4.6,80.61,3.26,79,3.26Z"/><path class="cls-1" d="M90.72,10.78v-.33c.71-.07.79-.12.79-1v-2c0-.86-.29-1.4-1-1.4a2.18,2.18,0,0,0-1.33.63c0,.14,0,.29,0,.51V9.56c0,.76.11.82.77.89v.33H87.38v-.33c.75-.07.86-.12.86-.91V7.47c0-.88-.28-1.38-1-1.38a2.3,2.3,0,0,0-1.32.63V9.54c0,.79.08.84.77.91v.33H84.1v-.33c.79-.07.86-.12.86-.91V7.05c0-.76,0-.81-.72-.93v-.3a6.63,6.63,0,0,0,1.67-.48v1a8.24,8.24,0,0,1,.89-.62,1.63,1.63,0,0,1,.94-.31,1.39,1.39,0,0,1,1.31,1c.34-.27.65-.47,1-.67a1.79,1.79,0,0,1,1-.31c.93,0,1.51.67,1.51,1.84V9.54c0,.8.07.84.75.91v.33Z"/><path class="cls-1" d="M96.66,5.38a2.57,2.57,0,0,1,2.61,2.68,2.69,2.69,0,0,1-2.61,2.87A2.63,2.63,0,0,1,94,8.25,2.74,2.74,0,0,1,96.66,5.38Zm-.14.4c-.74,0-1.4.71-1.4,2.1s.68,2.63,1.66,2.63c.74,0,1.37-.54,1.37-2.18C98.15,6.92,97.57,5.78,96.52,5.78Z"/><path class="cls-1" d="M102.89,10.78h-2.76v-.33c.76-.07.83-.13.83-.91V7c0-.79,0-.83-.75-.91v-.3a6.8,6.8,0,0,0,1.69-.49V6.66c.42-.63.93-1.28,1.53-1.28a.61.61,0,0,1,.69.57.8.8,0,0,1-.4.66.26.26,0,0,1-.32,0,.75.75,0,0,0-.54-.3c-.25,0-.69.37-1,1V9.52c0,.8.06.86,1,.93Z"/><path class="cls-1" d="M104.58,10.78v-.33c.76-.07.84-.13.84-.95V7c0-.74,0-.79-.75-.91V5.83a7.84,7.84,0,0,0,1.7-.48V9.5c0,.82.08.88.86.95v.33Zm1.25-6.6a.66.66,0,0,1-.64-.64.65.65,0,0,1,.65-.66.62.62,0,0,1,.61.66A.63.63,0,0,1,105.83,4.18Z"/><path class="cls-1" d="M115,4.81c-.21-.79-.54-1.57-1.67-1.57A1.19,1.19,0,0,0,112,4.55c0,.83.53,1.24,1.52,1.76,1.44.74,2.07,1.3,2.07,2.44A2.38,2.38,0,0,1,113,11a5.07,5.07,0,0,1-1.84-.39,17.12,17.12,0,0,1-.32-1.8l.37-.1a2.19,2.19,0,0,0,2,1.85,1.32,1.32,0,0,0,1.39-1.38c0-.92-.49-1.29-1.55-1.87-1.26-.68-2-1.26-2-2.37a2.22,2.22,0,0,1,2.47-2.08,7.47,7.47,0,0,1,1.59.23c0,.43.09.91.19,1.69Z"/><path class="cls-1" d="M119.84,10.78v-.33c.7-.07.79-.13.79-.93v-2c0-1-.38-1.5-1.18-1.49a1.71,1.71,0,0,0-1.27.62V9.52c0,.78.09.86.81.93v.33h-2.61v-.33c.69-.06.85-.12.85-.93V3.74c0-.63,0-.79-.84-.86V2.57a7.51,7.51,0,0,0,1.79-.41V6.25a2.7,2.7,0,0,1,1.74-.87c1,0,1.66.61,1.66,2.05V9.54c0,.79.1.85.79.91v.33Z"/><path class="cls-1" d="M125.78,5.38a2.58,2.58,0,0,1,2.62,2.68,2.69,2.69,0,0,1-2.62,2.87,2.63,2.63,0,0,1-2.66-2.68A2.74,2.74,0,0,1,125.78,5.38Zm-.14.4c-.73,0-1.39.71-1.39,2.1s.67,2.63,1.65,2.63c.75,0,1.37-.54,1.37-2.18C127.27,6.92,126.7,5.78,125.64,5.78Z"/><path class="cls-1" d="M129.25,5.82A7.5,7.5,0,0,0,131,5.35V9.46a5.26,5.26,0,0,1-.28,2,6.25,6.25,0,0,1-1.44,2.34.51.51,0,0,1-.31.13.56.56,0,0,1-.44-.54c0-.16,0-.23.19-.28a1.68,1.68,0,0,0,.92-.45,1.77,1.77,0,0,0,.31-.84,18.17,18.17,0,0,0,.1-2.33V7.08c0-.81-.06-.85-.82-1Zm1.24-1.67a.63.63,0,0,1,0-1.25.61.61,0,0,1,.59.64A.62.62,0,0,1,130.49,4.15Z"/><path class="cls-1" d="M132.33,10.78v-.33c.75-.07.83-.13.83-.95V7c0-.74,0-.79-.75-.91V5.83a7.68,7.68,0,0,0,1.7-.48V9.5c0,.82.09.88.87.95v.33Zm1.24-6.6a.66.66,0,0,1-.63-.64.65.65,0,0,1,.64-.66.63.63,0,0,1,.62.66A.64.64,0,0,1,133.57,4.18Z"/><path class="cls-1" d="M144.55,8.79c-.07.38-.43,1.62-.55,2h-5.58v-.33c1.09-.11,1.19-.17,1.19-1.19V4.5c0-1-.12-1.08-1.08-1.18V3h3.21v.33c-1,.1-1.09.15-1.09,1.18V9.38c0,.73.1.9.78.91h.95c.61,0,.79-.07,1.07-.37a4.05,4.05,0,0,0,.73-1.23Z"/><path class="cls-1" d="M145.19,10.78v-.33c.75-.07.84-.13.84-.95V7c0-.74,0-.79-.76-.91V5.83A7.77,7.77,0,0,0,147,5.35V9.5c0,.82.08.88.86.95v.33Zm1.25-6.6a.66.66,0,0,1-.64-.64.65.65,0,0,1,.65-.66.63.63,0,0,1,.61.66A.64.64,0,0,1,146.44,4.18Z"/><path class="cls-1" d="M151.39,13.71v-.33c1-.09,1-.15,1-1v-2l-1.28.51a2.55,2.55,0,0,1-2.61-2.58,3.09,3.09,0,0,1,3.23-3,3.28,3.28,0,0,1,.86.15.92.92,0,0,0,.33.06,1.73,1.73,0,0,0,.4-.13l0,0c0,.25,0,.49,0,1.28V12.4c0,.83.08.88.92,1v.33Zm1-7.34a1.67,1.67,0,0,0-1.19-.5c-.83,0-1.65.69-1.65,2.11a2,2,0,0,0,2.84,2.07Z"/><path class="cls-1" d="M160.52,10.51a13.28,13.28,0,0,0-1.83.42V10a3,3,0,0,1-1.84.93c-.8,0-1.5-.49-1.5-1.8V6.8c0-.65-.09-.72-.39-.78L154.62,6V5.65a15.37,15.37,0,0,0,1.71-.21c0,.38,0,.95,0,1.75V8.82c0,1,.55,1.35,1.09,1.35a1.93,1.93,0,0,0,1.3-.57V6.8c0-.65-.15-.73-.56-.79l-.38,0V5.65a17.54,17.54,0,0,0,1.88-.21v4c0,.6.1.69.56.71h.33Z"/><path class="cls-1" d="M163.85,5.38a2.57,2.57,0,0,1,2.61,2.68,2.69,2.69,0,0,1-2.61,2.87,2.64,2.64,0,0,1-2.67-2.68A2.75,2.75,0,0,1,163.85,5.38Zm-.15.4c-.73,0-1.39.71-1.39,2.1s.67,2.63,1.66,2.63c.74,0,1.36-.54,1.36-2.18C165.33,6.92,164.76,5.78,163.7,5.78Z"/><path class="cls-1" d="M170.07,10.78h-2.75v-.33c.75-.07.82-.13.82-.91V7c0-.79,0-.83-.74-.91v-.3a6.8,6.8,0,0,0,1.69-.49V6.66c.42-.63.92-1.28,1.52-1.28.45,0,.7.27.7.57a.79.79,0,0,1-.41.66.24.24,0,0,1-.31,0,.75.75,0,0,0-.54-.3c-.25,0-.7.37-1,1V9.52c0,.8.06.86,1,.93Z"/><path class="cls-1" d="M177.81,3a3.38,3.38,0,0,1,2,.51,2,2,0,0,1,.79,1.71A2.49,2.49,0,0,1,178,7.67a2.17,2.17,0,0,1-.32,0l-.83-.21V9.3c0,1,.09,1,1.19,1.15v.33h-3.31v-.33c1-.11,1.08-.18,1.08-1.18V4.51c0-1.07-.13-1.09-1.08-1.19V3Zm-1,4a2.28,2.28,0,0,0,.88.15,1.71,1.71,0,0,0,1.8-1.92,1.7,1.7,0,0,0-1.87-1.84,1.15,1.15,0,0,0-.68.14c-.09.08-.13.23-.13.55Z"/><path class="cls-1" d="M187.29,10.51a13.28,13.28,0,0,0-1.83.42V10a3,3,0,0,1-1.84.93c-.8,0-1.5-.49-1.5-1.8V6.8c0-.65-.09-.72-.39-.78L181.39,6V5.65a15.88,15.88,0,0,0,1.72-.21c0,.38,0,.95,0,1.75V8.82c0,1,.55,1.35,1.09,1.35a1.91,1.91,0,0,0,1.3-.57V6.8c0-.65-.15-.73-.55-.79l-.39,0V5.65a18.14,18.14,0,0,0,1.89-.21v4c0,.6.09.69.55.71h.33Z"/><path class="cls-1" d="M190.65,10.78H187.9v-.33c.75-.07.82-.13.82-.91V7c0-.79,0-.83-.74-.91v-.3a6.8,6.8,0,0,0,1.69-.49V6.66c.42-.63.92-1.28,1.52-1.28.45,0,.7.27.7.57a.79.79,0,0,1-.41.66.24.24,0,0,1-.31,0,.75.75,0,0,0-.54-.3c-.25,0-.7.37-1,1V9.52c0,.8.06.86,1,.93Z"/><path class="cls-1" d="M196.89,9.7a2.83,2.83,0,0,1-2,1.23,2.42,2.42,0,0,1-2.42-2.52,2.85,2.85,0,0,1,1.21-2.35,3.2,3.2,0,0,1,1.82-.68,1.77,1.77,0,0,1,1.12.32.37.37,0,0,1,.19.35.62.62,0,0,1-.43.54c-.06,0-.11,0-.23-.12A1.77,1.77,0,0,0,194.89,6c-.79,0-1.49.67-1.49,1.92a2,2,0,0,0,1.83,2.22,1.91,1.91,0,0,0,1.46-.66Z"/><path class="cls-1" d="M200.79,10.78v-.33c.7-.07.79-.13.79-.93v-2c0-1-.38-1.5-1.18-1.49a1.71,1.71,0,0,0-1.27.62V9.52c0,.78.09.86.81.93v.33h-2.61v-.33c.69-.06.85-.12.85-.93V3.74c0-.63,0-.79-.84-.86V2.57a7.39,7.39,0,0,0,1.79-.41V6.25a2.7,2.7,0,0,1,1.74-.87c1,0,1.66.61,1.66,2.05V9.54c0,.79.1.85.79.91v.33Z"/><path class="cls-1" d="M207.86,10.93a.88.88,0,0,1-.56-.23,1.1,1.1,0,0,1-.29-.54,3.85,3.85,0,0,1-1.44.77,1.47,1.47,0,0,1-1.46-1.48,1.23,1.23,0,0,1,1-1.2,9.35,9.35,0,0,0,1.9-.78V7.23c0-.85-.44-1.34-1.06-1.34a.67.67,0,0,0-.56.28A2.32,2.32,0,0,0,205,7a.33.33,0,0,1-.35.27.58.58,0,0,1-.52-.53c0-.16.15-.31.39-.48a5.07,5.07,0,0,1,1.73-.83,1.64,1.64,0,0,1,1,.32,1.66,1.66,0,0,1,.61,1.39V9.4c0,.56.2.72.42.72a1,1,0,0,0,.43-.13l.12.34Zm-.87-3c-.27.14-.84.39-1.12.51-.46.2-.73.43-.73.87a.88.88,0,0,0,.86.93,1.62,1.62,0,0,0,1-.44Z"/><path class="cls-1" d="M212.52,7c-.22-.7-.53-1.18-1.26-1.18a.73.73,0,0,0-.75.78c0,.52.35.76,1,1.07,1,.49,1.55.85,1.55,1.64a1.79,1.79,0,0,1-2,1.67,3,3,0,0,1-1.43-.34c-.06-.35-.17-1-.22-1.4l.35-.06c.22.77.64,1.39,1.48,1.39a.8.8,0,0,0,.84-.82c0-.53-.33-.81-1-1.12-.84-.41-1.53-.79-1.53-1.66a1.66,1.66,0,0,1,1.87-1.54,6.89,6.89,0,0,1,1.16.15c0,.29.11,1,.18,1.33Z"/><path class="cls-1" d="M218.26,9.76a2.72,2.72,0,0,1-2,1.17,2.4,2.4,0,0,1-2.35-2.58,3.09,3.09,0,0,1,.78-2.1,2.49,2.49,0,0,1,1.79-.87,1.86,1.86,0,0,1,1.83,1.85c0,.24,0,.35-.24.4s-1.77.16-3.2.2c0,1.61,1,2.27,1.8,2.27a2,2,0,0,0,1.39-.61ZM216.2,5.83c-.55,0-1.09.52-1.26,1.49.67,0,1.35,0,2.05,0,.22,0,.29-.06.29-.24A1.12,1.12,0,0,0,216.2,5.83Z"/><path class="cls-1" d="M226.15,4.81c-.21-.79-.54-1.57-1.67-1.57a1.19,1.19,0,0,0-1.26,1.31c0,.83.53,1.24,1.52,1.76,1.44.74,2.07,1.3,2.07,2.44A2.38,2.38,0,0,1,224.17,11a5.11,5.11,0,0,1-1.84-.39,17.12,17.12,0,0,1-.32-1.8l.37-.1a2.19,2.19,0,0,0,2,1.85,1.32,1.32,0,0,0,1.39-1.38c0-.92-.49-1.29-1.55-1.87-1.26-.68-2-1.26-2-2.37a2.22,2.22,0,0,1,2.47-2.08,7.47,7.47,0,0,1,1.59.23c0,.43.09.91.19,1.69Z"/><path class="cls-1" d="M231,10.78v-.33c.7-.07.8-.13.8-.93v-2c0-1-.39-1.5-1.19-1.49a1.71,1.71,0,0,0-1.27.62V9.52c0,.78.09.86.81.93v.33h-2.61v-.33c.69-.06.85-.12.85-.93V3.74c0-.63,0-.79-.84-.86V2.57a7.28,7.28,0,0,0,1.79-.41V6.25a2.7,2.7,0,0,1,1.74-.87c1,0,1.66.61,1.66,2.05V9.54c0,.79.1.85.8.91v.33Z"/><path class="cls-1" d="M237,5.38a2.58,2.58,0,0,1,2.62,2.68A2.69,2.69,0,0,1,237,10.93a2.63,2.63,0,0,1-2.66-2.68A2.74,2.74,0,0,1,237,5.38Zm-.14.4c-.73,0-1.39.71-1.39,2.1s.67,2.63,1.65,2.63c.75,0,1.37-.54,1.37-2.18C238.47,6.92,237.9,5.78,236.84,5.78Z"/><path class="cls-1" d="M240.35,5.77a8.18,8.18,0,0,0,1.74-.51v1l1-.59a1.65,1.65,0,0,1,.69-.24A2.17,2.17,0,0,1,246,7.67a3.41,3.41,0,0,1-3,3.26,1.86,1.86,0,0,1-.85-.22v1.62c0,.89.09,1,1,1.05v.33h-2.84v-.33c.78-.09.88-.15.88-1V7c0-.72,0-.77-.79-.88Zm1.74,4.1a1.7,1.7,0,0,0,1.13.47c1.05,0,1.72-.88,1.72-2.22s-.76-2-1.61-2a2.37,2.37,0,0,0-1.24.52Z"/><text class="cls-2" transform="translate(74.68 35.1)">おおもりしょうじお酒買取店</text><text class="cls-3" transform="translate(74.68 55.06)">高価買取いたします</text><path class="cls-4" d="M54.62,45.06,36.67,26.45l-2.56,3.08L52.54,47.81c-10.21,14-33.53,15.68-45.75.34C13,42,19.23,35.89,25.66,29.55l-3.34-3L4.73,44.9C-1,37.8-3.28,21,8.15,9.17,18.88-1.9,36.47-3.12,48.14,6.44S62.9,33.07,54.62,45.06ZM36.34,18.37,52.87,34.73c2.67-10-2.39-21.06-11.52-26.07-9.72-5.32-22-3.43-29.24,4.5-5.6,6.12-8.37,16.77-5,21.81l16-16.86L29.66,26Zm7.18,30.56c-4.78-5-9.48-10-14.05-14.79L15.24,48.42C22.23,55.07,36.7,55.09,43.52,48.93Z"/><path class="cls-5" d="M42.4,48.46a22.3,22.3,0,0,1-10.9,3.82c-.56,0-1.67-.75-1.7-1.21-.18-2.46-.08-4.94-.08-7.67l3.85.44L31.11,37l.29-.16Z"/></g></g></svg>